<?xml version="1.0" encoding="UTF-8" standalone="no"?>
<!DOCTYPE svg PUBLIC "-//W3C//DTD SVG 1.1//EN" "http://www.w3.org/Graphics/SVG/1.1/DTD/svg11.dtd">
<svg width="100%" height="100%" viewBox="0 0 2483 3513" version="1.1" xmlns="http://www.w3.org/2000/svg" xmlns:xlink="http://www.w3.org/1999/xlink" xml:space="preserve" xmlns:serif="http://www.serif.com/" style="fill-rule:evenodd;clip-rule:evenodd;stroke-linejoin:round;stroke-miterlimit:2;">
    <g transform="matrix(1,0,0,1,1.04167,2.08333)">
        <g id="Background">
            <g transform="matrix(1.05274,0,0,1.02208,-69.806,-36.4454)">
                <rect x="66.309" y="35.658" width="2356.06" height="3432.1" style="fill:rgb(8,8,8);"/>
            </g>
            <g transform="matrix(0.296296,0,0,1.68421,0,0)">
                <rect x="0" y="0" width="8371.06" height="2082.8" style="fill:none;fill-rule:nonzero;stroke:rgb(5,217,232);stroke-width:0.83px;"/>
                <g transform="matrix(3.375,0,0,0.59375,0,0)">
                    <path d="M0,-1.042L0,3508.92M2480.32,-1.042L2480.32,3508.92M91.864,0L91.864,3507.87M183.727,0L183.727,3507.87M275.591,0L275.591,3507.87M367.454,0L367.454,3507.87M459.318,0L459.318,3507.87M551.181,0L551.181,3507.87M643.045,0L643.045,3507.87M734.908,0L734.908,3507.87M826.772,0L826.772,3507.87M918.635,0L918.635,3507.87M1010.5,0L1010.5,3507.87M1102.36,0L1102.36,3507.87M1194.23,0L1194.23,3507.87M1286.09,0L1286.09,3507.87M1377.95,0L1377.95,3507.87M1469.82,0L1469.82,3507.87M1561.68,0L1561.68,3507.87M1653.54,0L1653.54,3507.87M1745.41,0L1745.41,3507.87M1837.27,0L1837.27,3507.87M1929.13,0L1929.13,3507.87M2021,0L2021,3507.87M2112.86,0L2112.86,3507.87M2204.72,0L2204.72,3507.87M2296.59,0L2296.59,3507.87M2388.45,0L2388.45,3507.87M0,0L2480.32,0M0,92.312L2480.32,92.312M0,184.625L2480.32,184.625M0,276.937L2480.32,276.937M0,369.25L2480.32,369.25M0,461.562L2480.32,461.562M0,553.875L2480.32,553.875M0,646.187L2480.32,646.187M0,738.5L2480.32,738.5M0,830.812L2480.32,830.812M0,923.125L2480.32,923.125M0,1015.44L2480.32,1015.44M0,1107.75L2480.32,1107.75M0,1200.06L2480.32,1200.06M0,1292.38L2480.32,1292.38M0,1384.69L2480.32,1384.69M0,1477L2480.32,1477M0,1569.31L2480.32,1569.31M0,1661.62L2480.32,1661.62M0,1753.94L2480.32,1753.94M0,1846.25L2480.32,1846.25M0,1938.56L2480.32,1938.56M0,2030.87L2480.32,2030.87M0,2123.19L2480.32,2123.19M0,2215.5L2480.32,2215.5M0,2307.81L2480.32,2307.81M0,2400.12L2480.32,2400.12M0,2492.44L2480.32,2492.44M0,2584.75L2480.32,2584.75M0,2677.06L2480.32,2677.06M0,2769.37L2480.32,2769.37M0,2861.69L2480.32,2861.69M0,2954L2480.32,2954M0,3046.31L2480.32,3046.31M0,3138.62L2480.32,3138.62M0,3230.94L2480.32,3230.94M0,3323.25L2480.32,3323.25M0,3415.56L2480.32,3415.56M0,3507.87L2480.32,3507.87" style="fill:none;stroke:rgb(38,38,38);stroke-width:2.08px;"/>
                </g>
            </g>
        </g>
    </g>
</svg>
