<?xml version="1.0" encoding="UTF-8" standalone="no"?>
<!DOCTYPE svg PUBLIC "-//W3C//DTD SVG 1.1//EN" "http://www.w3.org/Graphics/SVG/1.1/DTD/svg11.dtd">
<svg width="100%" height="100%" viewBox="0 0 141 156" version="1.1" xmlns="http://www.w3.org/2000/svg" xmlns:xlink="http://www.w3.org/1999/xlink" xml:space="preserve" xmlns:serif="http://www.serif.com/" style="fill-rule:evenodd;clip-rule:evenodd;stroke-linejoin:round;stroke-miterlimit:2;">
    <g transform="matrix(1,0,0,1,-309.155,-724.793)">
        <g transform="matrix(0.78903,0,0,0.78903,260.136,409.653)">
            <g transform="matrix(0.310783,0,0,0.310783,-710.337,129.692)">
                <g transform="matrix(19.4007,0,0,19.4007,2485.54,877.836)">
                    <path id="Fill-1" serif:id="Fill 1" d="M25.561,22.359C25.561,22.563 25.425,22.767 25.288,22.835L16.496,27.867C16.223,28.003 15.883,27.935 15.746,27.663C15.678,27.595 15.678,27.459 15.678,27.391L15.678,17.327C15.678,17.123 15.815,16.919 15.951,16.851L24.743,11.751C25.016,11.615 25.357,11.683 25.493,11.955C25.561,12.023 25.561,12.159 25.561,12.227L25.561,22.359ZM12.609,27.46C12.609,27.8 12.336,28.004 12.063,28.004C11.995,28.004 11.859,28.004 11.791,27.936L2.998,22.904C2.794,22.836 2.726,22.632 2.726,22.428L2.726,12.228C2.726,11.888 2.998,11.684 3.271,11.684C3.339,11.684 3.475,11.684 3.544,11.752L12.336,16.784C12.54,16.852 12.609,17.056 12.609,17.26L12.609,27.46ZM5.044,8.148L13.837,3.048C14.041,2.979 14.246,2.979 14.382,3.048L23.174,8.148C23.447,8.283 23.515,8.623 23.379,8.895L23.174,9.099L14.382,14.199C14.178,14.268 13.973,14.268 13.837,14.199L5.044,9.099C4.772,8.963 4.704,8.623 4.84,8.351L5.044,8.148ZM28.286,8.691C28.286,8.351 28.149,8.011 27.945,7.808L27.877,7.808L27.808,7.739L27.74,7.671L27.672,7.671L14.722,0.191L14.654,0.123C14.313,-0.081 13.836,-0.012 13.495,0.191L0.545,7.603L0.477,7.603L0.341,7.739L0.273,7.808C0.068,8.011 0,8.283 0,8.623L0,23.584C0,23.991 0.273,24.399 0.613,24.604L13.564,32.015C13.564,32.015 13.632,32.015 13.632,32.084L14.586,32.084C14.586,32.084 14.654,32.084 14.654,32.015L27.604,24.604C28.013,24.399 28.218,23.991 28.218,23.584L28.286,8.691Z" style="fill:rgb(125,255,0);"/>
                </g>
                <g transform="matrix(19.4007,0,0,19.4007,2508.54,867.836)">
                    <path id="Fill-11" serif:id="Fill 1" d="M25.561,22.359C25.561,22.563 25.425,22.767 25.288,22.835L16.496,27.867C16.223,28.003 15.883,27.935 15.746,27.663C15.678,27.595 15.678,27.459 15.678,27.391L15.678,17.327C15.678,17.123 15.815,16.919 15.951,16.851L24.743,11.751C25.016,11.615 25.357,11.683 25.493,11.955C25.561,12.023 25.561,12.159 25.561,12.227L25.561,22.359ZM12.609,27.46C12.609,27.8 12.336,28.004 12.063,28.004C11.995,28.004 11.859,28.004 11.791,27.936L2.998,22.904C2.794,22.836 2.726,22.632 2.726,22.428L2.726,12.228C2.726,11.888 2.998,11.684 3.271,11.684C3.339,11.684 3.475,11.684 3.544,11.752L12.336,16.784C12.54,16.852 12.609,17.056 12.609,17.26L12.609,27.46ZM5.044,8.148L13.837,3.048C14.041,2.979 14.246,2.979 14.382,3.048L23.174,8.148C23.447,8.283 23.515,8.623 23.379,8.895L23.174,9.099L14.382,14.199C14.178,14.268 13.973,14.268 13.837,14.199L5.044,9.099C4.772,8.963 4.704,8.623 4.84,8.351L5.044,8.148ZM28.286,8.691C28.286,8.351 28.149,8.011 27.945,7.808L27.877,7.808L27.808,7.739L27.74,7.671L27.672,7.671L14.722,0.191L14.654,0.123C14.313,-0.081 13.836,-0.012 13.495,0.191L0.545,7.603L0.477,7.603L0.341,7.739L0.273,7.808C0.068,8.011 0,8.283 0,8.623L0,23.584C0,23.991 0.273,24.399 0.613,24.604L13.564,32.015C13.564,32.015 13.632,32.015 13.632,32.084L14.586,32.084C14.586,32.084 14.654,32.084 14.654,32.015L27.604,24.604C28.013,24.399 28.218,23.991 28.218,23.584L28.286,8.691Z" style="fill:rgb(255,113,206);"/>
                </g>
                <g transform="matrix(19.4007,0,0,19.4007,2485.54,867.836)">
                    <path id="Fill-12" serif:id="Fill 1" d="M25.561,22.359C25.561,22.563 25.425,22.767 25.288,22.835L16.496,27.867C16.223,28.003 15.883,27.935 15.746,27.663C15.678,27.595 15.678,27.459 15.678,27.391L15.678,17.327C15.678,17.123 15.815,16.919 15.951,16.851L24.743,11.751C25.016,11.615 25.357,11.683 25.493,11.955C25.561,12.023 25.561,12.159 25.561,12.227L25.561,22.359ZM12.609,27.46C12.609,27.8 12.336,28.004 12.063,28.004C11.995,28.004 11.859,28.004 11.791,27.936L2.998,22.904C2.794,22.836 2.726,22.632 2.726,22.428L2.726,12.228C2.726,11.888 2.998,11.684 3.271,11.684C3.339,11.684 3.475,11.684 3.544,11.752L12.336,16.784C12.54,16.852 12.609,17.056 12.609,17.26L12.609,27.46ZM5.044,8.148L13.837,3.048C14.041,2.979 14.246,2.979 14.382,3.048L23.174,8.148C23.447,8.283 23.515,8.623 23.379,8.895L23.174,9.099L14.382,14.199C14.178,14.268 13.973,14.268 13.837,14.199L5.044,9.099C4.772,8.963 4.704,8.623 4.84,8.351L5.044,8.148ZM28.286,8.691C28.286,8.351 28.149,8.011 27.945,7.808L27.877,7.808L27.808,7.739L27.74,7.671L27.672,7.671L14.722,0.191L14.654,0.123C14.313,-0.081 13.836,-0.012 13.495,0.191L0.545,7.603L0.477,7.603L0.341,7.739L0.273,7.808C0.068,8.011 0,8.283 0,8.623L0,23.584C0,23.991 0.273,24.399 0.613,24.604L13.564,32.015C13.564,32.015 13.632,32.015 13.632,32.084L14.586,32.084C14.586,32.084 14.654,32.084 14.654,32.015L27.604,24.604C28.013,24.399 28.218,23.991 28.218,23.584L28.286,8.691Z" style="fill:rgb(5,217,232);"/>
                </g>
            </g>
        </g>
    </g>
</svg>
