<?xml version="1.0" encoding="UTF-8" standalone="no"?>
<!DOCTYPE svg PUBLIC "-//W3C//DTD SVG 1.1//EN" "http://www.w3.org/Graphics/SVG/1.1/DTD/svg11.dtd">
<svg width="100%" height="100%" viewBox="0 0 159 156" version="1.1" xmlns="http://www.w3.org/2000/svg" xmlns:xlink="http://www.w3.org/1999/xlink" xml:space="preserve" xmlns:serif="http://www.serif.com/" style="fill-rule:evenodd;clip-rule:evenodd;stroke-linejoin:round;stroke-miterlimit:2;">
    <g transform="matrix(1,0,0,1,-747.244,-723.988)">
        <g transform="matrix(0.78903,0,0,0.78903,260.136,409.653)">
            <g transform="matrix(0.310783,0,0,0.310783,-481.015,129.692)">
                <g id="Path_2520" transform="matrix(9.60726,0,0,9.60726,-5148.62,323.533)">
                    <path d="M958.98,112.559L949.38,112.559L949.38,97.525C949.38,93.94 949.316,89.325 944.387,89.325C939.387,89.325 938.622,93.231 938.622,97.264L938.622,112.558L929.022,112.558L929.022,81.642L938.238,81.642L938.238,85.867L938.367,85.867C940.244,82.658 943.746,80.735 947.46,80.873C957.19,80.873 958.984,87.273 958.984,95.599L958.98,112.559ZM918.19,77.416C918.19,77.416 918.189,77.416 918.189,77.416C915.133,77.416 912.618,74.901 912.618,71.845C912.618,68.789 915.133,66.274 918.189,66.274C921.245,66.274 923.759,68.788 923.76,71.844C923.76,71.844 923.76,71.845 923.76,71.845C923.76,74.901 921.246,77.415 918.19,77.416M922.99,112.559L913.38,112.559L913.38,81.642L922.99,81.642L922.99,112.559ZM963.766,57.359L908.556,57.359C905.964,57.33 903.807,59.437 903.775,62.029L903.775,117.468C903.806,120.061 905.963,122.171 908.556,122.143L963.766,122.143C966.364,122.176 968.53,120.066 968.566,117.468L968.566,62.025C968.529,59.428 966.363,57.321 963.766,57.355" style="fill:rgb(125,255,0);fill-rule:nonzero;"/>
                </g>
                <g id="Path_25201" serif:id="Path_2520" transform="matrix(9.60726,0,0,9.60726,-5125.62,313.533)">
                    <path d="M958.98,112.559L949.38,112.559L949.38,97.525C949.38,93.94 949.316,89.325 944.387,89.325C939.387,89.325 938.622,93.231 938.622,97.264L938.622,112.558L929.022,112.558L929.022,81.642L938.238,81.642L938.238,85.867L938.367,85.867C940.244,82.658 943.746,80.735 947.46,80.873C957.19,80.873 958.984,87.273 958.984,95.599L958.98,112.559ZM918.19,77.416C918.19,77.416 918.189,77.416 918.189,77.416C915.133,77.416 912.618,74.901 912.618,71.845C912.618,68.789 915.133,66.274 918.189,66.274C921.245,66.274 923.759,68.788 923.76,71.844C923.76,71.844 923.76,71.845 923.76,71.845C923.76,74.901 921.246,77.415 918.19,77.416M922.99,112.559L913.38,112.559L913.38,81.642L922.99,81.642L922.99,112.559ZM963.766,57.359L908.556,57.359C905.964,57.33 903.807,59.437 903.775,62.029L903.775,117.468C903.806,120.061 905.963,122.171 908.556,122.143L963.766,122.143C966.364,122.176 968.53,120.066 968.566,117.468L968.566,62.025C968.529,59.428 966.363,57.321 963.766,57.355" style="fill:rgb(255,113,206);fill-rule:nonzero;"/>
                </g>
                <g id="Path_25202" serif:id="Path_2520" transform="matrix(9.60726,0,0,9.60726,-5148.62,313.533)">
                    <path d="M958.98,112.559L949.38,112.559L949.38,97.525C949.38,93.94 949.316,89.325 944.387,89.325C939.387,89.325 938.622,93.231 938.622,97.264L938.622,112.558L929.022,112.558L929.022,81.642L938.238,81.642L938.238,85.867L938.367,85.867C940.244,82.658 943.746,80.735 947.46,80.873C957.19,80.873 958.984,87.273 958.984,95.599L958.98,112.559ZM918.19,77.416C918.19,77.416 918.189,77.416 918.189,77.416C915.133,77.416 912.618,74.901 912.618,71.845C912.618,68.789 915.133,66.274 918.189,66.274C921.245,66.274 923.759,68.788 923.76,71.844C923.76,71.844 923.76,71.845 923.76,71.845C923.76,74.901 921.246,77.415 918.19,77.416M922.99,112.559L913.38,112.559L913.38,81.642L922.99,81.642L922.99,112.559ZM963.766,57.359L908.556,57.359C905.964,57.33 903.807,59.437 903.775,62.029L903.775,117.468C903.806,120.061 905.963,122.171 908.556,122.143L963.766,122.143C966.364,122.176 968.53,120.066 968.566,117.468L968.566,62.025C968.529,59.428 966.363,57.321 963.766,57.355" style="fill:rgb(5,217,232);fill-rule:nonzero;"/>
                </g>
            </g>
        </g>
    </g>
</svg>
