<?xml version="1.0" encoding="UTF-8" standalone="no"?>
<!DOCTYPE svg PUBLIC "-//W3C//DTD SVG 1.1//EN" "http://www.w3.org/Graphics/SVG/1.1/DTD/svg11.dtd">
<svg width="100%" height="100%" viewBox="0 0 4050 2813" version="1.1" xmlns="http://www.w3.org/2000/svg" xmlns:xlink="http://www.w3.org/1999/xlink" xml:space="preserve" xmlns:serif="http://www.serif.com/" style="fill-rule:evenodd;clip-rule:evenodd;stroke-linejoin:round;stroke-miterlimit:2;">
    <g transform="matrix(1,0,0,-1,0,2812.5)">
        <rect x="1035.15" y="1547.23" width="86.361" height="57.946" style="fill:rgb(235,235,235);"/>
    </g>
    <g transform="matrix(1,0,0,-1,0,2812.5)">
        <rect x="1129.52" y="1547.23" width="86.361" height="57.946" style="fill:rgb(235,235,235);"/>
    </g>
    <g transform="matrix(1,0,0,-1,0,2812.5)">
        <rect x="1222.84" y="1547.23" width="86.361" height="57.946" style="fill:rgb(235,235,235);"/>
    </g>
    <g transform="matrix(1,0,0,-1,0,2812.5)">
        <rect x="1035.15" y="1483.37" width="86.361" height="57.946" style="fill:rgb(235,235,235);"/>
    </g>
    <g transform="matrix(1,0,0,-1,0,2812.5)">
        <rect x="1129.52" y="1483.37" width="86.361" height="57.946" style="fill:rgb(235,235,235);"/>
    </g>
    <g transform="matrix(1,0,0,-1,0,2812.5)">
        <rect x="1222.84" y="1483.37" width="86.361" height="57.946" style="fill:rgb(235,235,235);"/>
    </g>
    <g transform="matrix(1,0,0,-1,0,2812.5)">
        <rect x="1035.15" y="1419.83" width="86.361" height="57.946" style="fill:rgb(235,235,235);"/>
    </g>
    <g transform="matrix(1,0,0,-1,0,2812.5)">
        <rect x="1129.52" y="1419.83" width="86.361" height="57.946" style="fill:rgb(235,235,235);"/>
    </g>
    <g transform="matrix(1,0,0,-1,0,2812.5)">
        <rect x="1222.84" y="1419.83" width="86.361" height="57.946" style="fill:rgb(235,235,235);"/>
    </g>
    <g transform="matrix(1,0,0,-1,0,2812.5)">
        <rect x="1035.15" y="1355.98" width="86.361" height="57.946" style="fill:rgb(235,235,235);"/>
    </g>
    <g transform="matrix(1,0,0,-1,0,2812.5)">
        <rect x="1129.52" y="1355.98" width="86.361" height="57.946" style="fill:rgb(235,235,235);"/>
    </g>
    <g transform="matrix(1,0,0,-1,0,2812.5)">
        <rect x="1222.84" y="1355.98" width="86.361" height="57.946" style="fill:rgb(235,235,235);"/>
    </g>
    <g transform="matrix(1,0,0,-1,0,2812.5)">
        <rect x="1035.15" y="1293.14" width="86.361" height="57.946" style="fill:rgb(235,235,235);"/>
    </g>
    <g transform="matrix(1,0,0,-1,0,2812.5)">
        <rect x="1129.52" y="1293.14" width="86.361" height="57.946" style="fill:rgb(235,235,235);"/>
    </g>
    <g transform="matrix(1,0,0,-1,0,2812.5)">
        <rect x="1222.84" y="1293.14" width="86.361" height="57.946" style="fill:rgb(235,235,235);"/>
    </g>
    <g transform="matrix(1,0,0,-1,0,2812.5)">
        <rect x="1970.61" y="1378.16" width="86.361" height="57.946" style="fill:rgb(235,235,235);"/>
    </g>
    <g transform="matrix(1,0,0,-1,0,2812.5)">
        <rect x="2064.99" y="1378.16" width="86.361" height="57.946" style="fill:rgb(235,235,235);"/>
    </g>
    <g transform="matrix(1,0,0,-1,0,2812.5)">
        <rect x="2158.31" y="1378.16" width="86.361" height="57.946" style="fill:rgb(235,235,235);"/>
    </g>
    <g transform="matrix(1,0,0,-1,0,2812.5)">
        <rect x="1970.61" y="1314.31" width="86.361" height="57.946" style="fill:rgb(235,235,235);"/>
    </g>
    <g transform="matrix(1,0,0,-1,0,2812.5)">
        <rect x="2064.99" y="1314.31" width="86.361" height="57.946" style="fill:rgb(235,235,235);"/>
    </g>
    <g transform="matrix(1,0,0,-1,0,2812.5)">
        <rect x="2158.31" y="1314.31" width="86.361" height="57.946" style="fill:rgb(235,235,235);"/>
    </g>
    <g transform="matrix(1,0,0,-1,0,2812.5)">
        <rect x="1970.61" y="1250.76" width="86.361" height="57.946" style="fill:rgb(235,235,235);"/>
    </g>
    <g transform="matrix(1,0,0,-1,0,2812.5)">
        <rect x="2064.99" y="1250.76" width="86.361" height="57.946" style="fill:rgb(235,235,235);"/>
    </g>
    <g transform="matrix(1,0,0,-1,0,2812.5)">
        <rect x="2158.31" y="1250.76" width="86.361" height="57.946" style="fill:rgb(235,235,235);"/>
    </g>
    <g transform="matrix(1,0,0,-1,0,2812.5)">
        <rect x="1970.61" y="1186.91" width="86.361" height="57.946" style="fill:rgb(235,235,235);"/>
    </g>
    <g transform="matrix(1,0,0,-1,0,2812.5)">
        <rect x="2064.99" y="1186.91" width="86.361" height="57.946" style="fill:rgb(235,235,235);"/>
    </g>
    <g transform="matrix(1,0,0,-1,0,2812.5)">
        <rect x="2158.31" y="1186.91" width="86.361" height="57.946" style="fill:rgb(235,235,235);"/>
    </g>
    <g transform="matrix(1,0,0,-1,0,2812.5)">
        <rect x="1970.61" y="1124.08" width="86.361" height="57.946" style="fill:rgb(235,235,235);"/>
    </g>
    <g transform="matrix(1,0,0,-1,0,2812.5)">
        <rect x="2064.99" y="1124.08" width="86.361" height="57.946" style="fill:rgb(235,235,235);"/>
    </g>
    <g transform="matrix(1,0,0,-1,0,2812.5)">
        <rect x="2158.31" y="1124.08" width="86.361" height="57.946" style="fill:rgb(235,235,235);"/>
    </g>
    <g transform="matrix(1,0,0,-1,0,2812.5)">
        <rect x="3321.44" y="1940.95" width="86.361" height="57.946" style="fill:rgb(235,235,235);"/>
    </g>
    <g transform="matrix(1,0,0,-1,0,2812.5)">
        <rect x="3415.82" y="1940.95" width="86.361" height="57.946" style="fill:rgb(235,235,235);"/>
    </g>
    <g transform="matrix(1,0,0,-1,0,2812.5)">
        <rect x="3509.14" y="1940.95" width="86.361" height="57.946" style="fill:rgb(235,235,235);"/>
    </g>
    <g transform="matrix(1,0,0,-1,0,2812.5)">
        <rect x="3321.44" y="1877.1" width="86.361" height="57.946" style="fill:rgb(235,235,235);"/>
    </g>
    <g transform="matrix(1,0,0,-1,0,2812.5)">
        <rect x="3415.82" y="1877.1" width="86.361" height="57.946" style="fill:rgb(235,235,235);"/>
    </g>
    <g transform="matrix(1,0,0,-1,0,2812.5)">
        <rect x="3509.14" y="1877.1" width="86.361" height="57.946" style="fill:rgb(235,235,235);"/>
    </g>
    <g transform="matrix(1,0,0,-1,0,2812.5)">
        <rect x="3321.44" y="1813.55" width="86.361" height="57.946" style="fill:rgb(235,235,235);"/>
    </g>
    <g transform="matrix(1,0,0,-1,0,2812.5)">
        <rect x="3415.82" y="1813.55" width="86.361" height="57.946" style="fill:rgb(235,235,235);"/>
    </g>
    <g transform="matrix(1,0,0,-1,0,2812.5)">
        <rect x="3509.14" y="1813.55" width="86.361" height="57.946" style="fill:rgb(235,235,235);"/>
    </g>
    <g transform="matrix(1,0,0,-1,0,2812.5)">
        <rect x="3321.44" y="1749.7" width="86.361" height="57.946" style="fill:rgb(235,235,235);"/>
    </g>
    <g transform="matrix(1,0,0,-1,0,2812.5)">
        <rect x="3415.82" y="1749.7" width="86.361" height="57.946" style="fill:rgb(235,235,235);"/>
    </g>
    <g transform="matrix(1,0,0,-1,0,2812.5)">
        <rect x="3509.14" y="1749.7" width="86.361" height="57.946" style="fill:rgb(235,235,235);"/>
    </g>
    <g transform="matrix(1,0,0,-1,0,2812.5)">
        <rect x="3321.44" y="1686.86" width="86.361" height="57.946" style="fill:rgb(235,235,235);"/>
    </g>
    <g transform="matrix(1,0,0,-1,0,2812.5)">
        <rect x="3415.82" y="1686.86" width="86.361" height="57.946" style="fill:rgb(235,235,235);"/>
    </g>
    <g transform="matrix(1,0,0,-1,0,2812.5)">
        <rect x="3509.14" y="1686.86" width="86.361" height="57.946" style="fill:rgb(235,235,235);"/>
    </g>
    <g transform="matrix(1,0,0,-1,0,2812.5)">
        <rect x="1766.35" y="413.499" width="86.361" height="57.946" style="fill:rgb(235,235,235);"/>
    </g>
    <g transform="matrix(1,0,0,-1,0,2812.5)">
        <rect x="1860.73" y="413.499" width="86.361" height="57.946" style="fill:rgb(235,235,235);"/>
    </g>
    <g transform="matrix(1,0,0,-1,0,2812.5)">
        <rect x="1954.05" y="413.499" width="86.361" height="57.946" style="fill:rgb(235,235,235);"/>
    </g>
    <g transform="matrix(1,0,0,-1,0,2812.5)">
        <rect x="1766.35" y="349.647" width="86.361" height="57.946" style="fill:rgb(235,235,235);"/>
    </g>
    <g transform="matrix(1,0,0,-1,0,2812.5)">
        <rect x="1860.73" y="349.647" width="86.361" height="57.946" style="fill:rgb(235,235,235);"/>
    </g>
    <g transform="matrix(1,0,0,-1,0,2812.5)">
        <rect x="1954.05" y="349.647" width="86.361" height="57.946" style="fill:rgb(235,235,235);"/>
    </g>
    <g transform="matrix(1,0,0,-1,0,2812.5)">
        <rect x="1766.35" y="286.103" width="86.361" height="57.946" style="fill:rgb(235,235,235);"/>
    </g>
    <g transform="matrix(1,0,0,-1,0,2812.5)">
        <rect x="1860.73" y="286.103" width="86.361" height="57.946" style="fill:rgb(235,235,235);"/>
    </g>
    <g transform="matrix(1,0,0,-1,0,2812.5)">
        <rect x="1954.05" y="286.103" width="86.361" height="57.946" style="fill:rgb(235,235,235);"/>
    </g>
    <g transform="matrix(1,0,0,-1,0,2812.5)">
        <rect x="1766.35" y="222.252" width="86.361" height="57.946" style="fill:rgb(235,235,235);"/>
    </g>
    <g transform="matrix(1,0,0,-1,0,2812.5)">
        <rect x="1860.73" y="222.252" width="86.361" height="57.946" style="fill:rgb(235,235,235);"/>
    </g>
    <g transform="matrix(1,0,0,-1,0,2812.5)">
        <rect x="1954.05" y="222.252" width="86.361" height="57.946" style="fill:rgb(235,235,235);"/>
    </g>
    <g transform="matrix(1,0,0,-1,0,2812.5)">
        <rect x="1766.35" y="159.417" width="86.361" height="57.946" style="fill:rgb(235,235,235);"/>
    </g>
    <g transform="matrix(1,0,0,-1,0,2812.5)">
        <rect x="1860.73" y="159.417" width="86.361" height="57.946" style="fill:rgb(235,235,235);"/>
    </g>
    <g transform="matrix(1,0,0,-1,0,2812.5)">
        <rect x="1954.05" y="159.417" width="86.361" height="57.946" style="fill:rgb(235,235,235);"/>
    </g>
    <g transform="matrix(1,0,0,-1,0,2812.5)">
        <rect x="1296.48" y="2158.61" width="86.361" height="57.946" style="fill:rgb(235,235,235);"/>
    </g>
    <g transform="matrix(1,0,0,-1,0,2812.5)">
        <rect x="1390.86" y="2158.61" width="86.361" height="57.946" style="fill:rgb(235,235,235);"/>
    </g>
    <g transform="matrix(1,0,0,-1,0,2812.5)">
        <rect x="1484.18" y="2158.61" width="86.361" height="57.946" style="fill:rgb(235,235,235);"/>
    </g>
    <g transform="matrix(1,0,0,-1,0,2812.5)">
        <rect x="1296.48" y="2094.76" width="86.361" height="57.946" style="fill:rgb(235,235,235);"/>
    </g>
    <g transform="matrix(1,0,0,-1,0,2812.5)">
        <rect x="1390.86" y="2094.76" width="86.361" height="57.946" style="fill:rgb(235,235,235);"/>
    </g>
    <g transform="matrix(1,0,0,-1,0,2812.5)">
        <rect x="1484.18" y="2094.76" width="86.361" height="57.946" style="fill:rgb(235,235,235);"/>
    </g>
    <g transform="matrix(1,0,0,-1,0,2812.5)">
        <rect x="1296.48" y="2031.22" width="86.361" height="57.946" style="fill:rgb(235,235,235);"/>
    </g>
    <g transform="matrix(1,0,0,-1,0,2812.5)">
        <rect x="1390.86" y="2031.22" width="86.361" height="57.946" style="fill:rgb(235,235,235);"/>
    </g>
    <g transform="matrix(1,0,0,-1,0,2812.5)">
        <rect x="1484.18" y="2031.22" width="86.361" height="57.946" style="fill:rgb(235,235,235);"/>
    </g>
    <g transform="matrix(1,0,0,-1,0,2812.5)">
        <rect x="1296.48" y="1967.37" width="86.361" height="57.946" style="fill:rgb(235,235,235);"/>
    </g>
    <g transform="matrix(1,0,0,-1,0,2812.5)">
        <rect x="1390.86" y="1967.37" width="86.361" height="57.946" style="fill:rgb(235,235,235);"/>
    </g>
    <g transform="matrix(1,0,0,-1,0,2812.5)">
        <rect x="1484.18" y="1967.37" width="86.361" height="57.946" style="fill:rgb(235,235,235);"/>
    </g>
    <g transform="matrix(1,0,0,-1,0,2812.5)">
        <rect x="1296.48" y="1904.53" width="86.361" height="57.946" style="fill:rgb(235,235,235);"/>
    </g>
    <g transform="matrix(1,0,0,-1,0,2812.5)">
        <rect x="1390.86" y="1904.53" width="86.361" height="57.946" style="fill:rgb(235,235,235);"/>
    </g>
    <g transform="matrix(1,0,0,-1,0,2812.5)">
        <rect x="1484.18" y="1904.53" width="86.361" height="57.946" style="fill:rgb(235,235,235);"/>
    </g>
    <g transform="matrix(1,0,0,-1,0,2812.5)">
        <rect x="126.959" y="1345.16" width="86.361" height="57.946" style="fill:rgb(235,235,235);"/>
    </g>
    <g transform="matrix(1,0,0,-1,0,2812.5)">
        <rect x="221.337" y="1345.16" width="86.361" height="57.946" style="fill:rgb(235,235,235);"/>
    </g>
    <g transform="matrix(1,0,0,-1,0,2812.5)">
        <rect x="314.659" y="1345.16" width="86.361" height="57.946" style="fill:rgb(235,235,235);"/>
    </g>
    <g transform="matrix(1,0,0,-1,0,2812.5)">
        <rect x="126.959" y="1281.31" width="86.361" height="57.946" style="fill:rgb(235,235,235);"/>
    </g>
    <g transform="matrix(1,0,0,-1,0,2812.5)">
        <rect x="221.337" y="1281.31" width="86.361" height="57.946" style="fill:rgb(235,235,235);"/>
    </g>
    <g transform="matrix(1,0,0,-1,0,2812.5)">
        <rect x="314.659" y="1281.31" width="86.361" height="57.946" style="fill:rgb(235,235,235);"/>
    </g>
    <g transform="matrix(1,0,0,-1,0,2812.5)">
        <rect x="126.959" y="1217.76" width="86.361" height="57.946" style="fill:rgb(235,235,235);"/>
    </g>
    <g transform="matrix(1,0,0,-1,0,2812.5)">
        <rect x="221.337" y="1217.76" width="86.361" height="57.946" style="fill:rgb(235,235,235);"/>
    </g>
    <g transform="matrix(1,0,0,-1,0,2812.5)">
        <rect x="314.659" y="1217.76" width="86.361" height="57.946" style="fill:rgb(235,235,235);"/>
    </g>
    <g transform="matrix(1,0,0,-1,0,2812.5)">
        <rect x="126.959" y="1153.91" width="86.361" height="57.946" style="fill:rgb(235,235,235);"/>
    </g>
    <g transform="matrix(1,0,0,-1,0,2812.5)">
        <rect x="221.337" y="1153.91" width="86.361" height="57.946" style="fill:rgb(235,235,235);"/>
    </g>
    <g transform="matrix(1,0,0,-1,0,2812.5)">
        <rect x="314.659" y="1153.91" width="86.361" height="57.946" style="fill:rgb(235,235,235);"/>
    </g>
    <g transform="matrix(1,0,0,-1,0,2812.5)">
        <rect x="126.959" y="1091.08" width="86.361" height="57.946" style="fill:rgb(235,235,235);"/>
    </g>
    <g transform="matrix(1,0,0,-1,0,2812.5)">
        <rect x="221.337" y="1091.08" width="86.361" height="57.946" style="fill:rgb(235,235,235);"/>
    </g>
    <g transform="matrix(1,0,0,-1,0,2812.5)">
        <rect x="314.659" y="1091.08" width="86.361" height="57.946" style="fill:rgb(235,235,235);"/>
    </g>
    <g transform="matrix(1,0,0,-1,0,2812.5)">
        <rect x="2872.92" y="1322.5" width="86.361" height="57.946" style="fill:rgb(235,235,235);"/>
    </g>
    <g transform="matrix(1,0,0,-1,0,2812.5)">
        <rect x="2967.3" y="1322.5" width="86.361" height="57.946" style="fill:rgb(235,235,235);"/>
    </g>
    <g transform="matrix(1,0,0,-1,0,2812.5)">
        <rect x="3060.62" y="1322.5" width="86.361" height="57.946" style="fill:rgb(235,235,235);"/>
    </g>
    <g transform="matrix(1,0,0,-1,0,2812.5)">
        <rect x="2872.92" y="1258.65" width="86.361" height="57.946" style="fill:rgb(235,235,235);"/>
    </g>
    <g transform="matrix(1,0,0,-1,0,2812.5)">
        <rect x="2967.3" y="1258.65" width="86.361" height="57.946" style="fill:rgb(235,235,235);"/>
    </g>
    <g transform="matrix(1,0,0,-1,0,2812.5)">
        <rect x="3060.62" y="1258.65" width="86.361" height="57.946" style="fill:rgb(235,235,235);"/>
    </g>
    <g transform="matrix(1,0,0,-1,0,2812.5)">
        <rect x="2872.92" y="1195.1" width="86.361" height="57.946" style="fill:rgb(235,235,235);"/>
    </g>
    <g transform="matrix(1,0,0,-1,0,2812.5)">
        <rect x="2967.3" y="1195.1" width="86.361" height="57.946" style="fill:rgb(235,235,235);"/>
    </g>
    <g transform="matrix(1,0,0,-1,0,2812.5)">
        <rect x="3060.62" y="1195.1" width="86.361" height="57.946" style="fill:rgb(235,235,235);"/>
    </g>
    <g transform="matrix(1,0,0,-1,0,2812.5)">
        <rect x="2872.92" y="1131.25" width="86.361" height="57.946" style="fill:rgb(235,235,235);"/>
    </g>
    <g transform="matrix(1,0,0,-1,0,2812.5)">
        <rect x="2967.3" y="1131.25" width="86.361" height="57.946" style="fill:rgb(235,235,235);"/>
    </g>
    <g transform="matrix(1,0,0,-1,0,2812.5)">
        <rect x="3060.62" y="1131.25" width="86.361" height="57.946" style="fill:rgb(235,235,235);"/>
    </g>
    <g transform="matrix(1,0,0,-1,0,2812.5)">
        <rect x="2872.92" y="1068.42" width="86.361" height="57.946" style="fill:rgb(235,235,235);"/>
    </g>
    <g transform="matrix(1,0,0,-1,0,2812.5)">
        <rect x="2967.3" y="1068.42" width="86.361" height="57.946" style="fill:rgb(235,235,235);"/>
    </g>
    <g transform="matrix(1,0,0,-1,0,2812.5)">
        <rect x="3060.62" y="1068.42" width="86.361" height="57.946" style="fill:rgb(235,235,235);"/>
    </g>
    <g transform="matrix(1,0,0,-1,0,2812.5)">
        <rect x="399.209" y="2325.48" width="86.361" height="57.946" style="fill:rgb(235,235,235);"/>
    </g>
    <g transform="matrix(1,0,0,-1,0,2812.5)">
        <rect x="493.587" y="2325.48" width="86.361" height="57.946" style="fill:rgb(235,235,235);"/>
    </g>
    <g transform="matrix(1,0,0,-1,0,2812.5)">
        <rect x="586.909" y="2325.48" width="86.361" height="57.946" style="fill:rgb(235,235,235);"/>
    </g>
    <g transform="matrix(1,0,0,-1,0,2812.5)">
        <rect x="399.209" y="2261.63" width="86.361" height="57.946" style="fill:rgb(235,235,235);"/>
    </g>
    <g transform="matrix(1,0,0,-1,0,2812.5)">
        <rect x="493.587" y="2261.63" width="86.361" height="57.946" style="fill:rgb(235,235,235);"/>
    </g>
    <g transform="matrix(1,0,0,-1,0,2812.5)">
        <rect x="586.909" y="2261.63" width="86.361" height="57.946" style="fill:rgb(235,235,235);"/>
    </g>
    <g transform="matrix(1,0,0,-1,0,2812.5)">
        <rect x="399.209" y="2198.09" width="86.361" height="57.946" style="fill:rgb(235,235,235);"/>
    </g>
    <g transform="matrix(1,0,0,-1,0,2812.5)">
        <rect x="493.587" y="2198.09" width="86.361" height="57.946" style="fill:rgb(235,235,235);"/>
    </g>
    <g transform="matrix(1,0,0,-1,0,2812.5)">
        <rect x="586.909" y="2198.09" width="86.361" height="57.946" style="fill:rgb(235,235,235);"/>
    </g>
    <g transform="matrix(1,0,0,-1,0,2812.5)">
        <rect x="399.209" y="2134.24" width="86.361" height="57.946" style="fill:rgb(235,235,235);"/>
    </g>
    <g transform="matrix(1,0,0,-1,0,2812.5)">
        <rect x="493.587" y="2134.24" width="86.361" height="57.946" style="fill:rgb(235,235,235);"/>
    </g>
    <g transform="matrix(1,0,0,-1,0,2812.5)">
        <rect x="586.909" y="2134.24" width="86.361" height="57.946" style="fill:rgb(235,235,235);"/>
    </g>
    <g transform="matrix(1,0,0,-1,0,2812.5)">
        <rect x="399.209" y="2071.4" width="86.361" height="57.946" style="fill:rgb(235,235,235);"/>
    </g>
    <g transform="matrix(1,0,0,-1,0,2812.5)">
        <rect x="493.587" y="2071.4" width="86.361" height="57.946" style="fill:rgb(235,235,235);"/>
    </g>
    <g transform="matrix(1,0,0,-1,0,2812.5)">
        <rect x="586.909" y="2071.4" width="86.361" height="57.946" style="fill:rgb(235,235,235);"/>
    </g>
    <g transform="matrix(1,0,0,-1,0,2812.5)">
        <rect x="1189.51" y="869.243" width="86.361" height="57.946" style="fill:rgb(235,235,235);"/>
    </g>
    <g transform="matrix(1,0,0,-1,0,2812.5)">
        <rect x="1283.89" y="869.243" width="86.361" height="57.946" style="fill:rgb(235,235,235);"/>
    </g>
    <g transform="matrix(1,0,0,-1,0,2812.5)">
        <rect x="1377.21" y="869.243" width="86.361" height="57.946" style="fill:rgb(235,235,235);"/>
    </g>
    <g transform="matrix(1,0,0,-1,0,2812.5)">
        <rect x="1189.51" y="805.391" width="86.361" height="57.946" style="fill:rgb(235,235,235);"/>
    </g>
    <g transform="matrix(1,0,0,-1,0,2812.5)">
        <rect x="1283.89" y="805.391" width="86.361" height="57.946" style="fill:rgb(235,235,235);"/>
    </g>
    <g transform="matrix(1,0,0,-1,0,2812.5)">
        <rect x="1377.21" y="805.391" width="86.361" height="57.946" style="fill:rgb(235,235,235);"/>
    </g>
    <g transform="matrix(1,0,0,-1,0,2812.5)">
        <rect x="1189.51" y="741.847" width="86.361" height="57.946" style="fill:rgb(235,235,235);"/>
    </g>
    <g transform="matrix(1,0,0,-1,0,2812.5)">
        <rect x="1283.89" y="741.847" width="86.361" height="57.946" style="fill:rgb(235,235,235);"/>
    </g>
    <g transform="matrix(1,0,0,-1,0,2812.5)">
        <rect x="1377.21" y="741.847" width="86.361" height="57.946" style="fill:rgb(235,235,235);"/>
    </g>
    <g transform="matrix(1,0,0,-1,0,2812.5)">
        <rect x="1189.51" y="677.995" width="86.361" height="57.946" style="fill:rgb(235,235,235);"/>
    </g>
    <g transform="matrix(1,0,0,-1,0,2812.5)">
        <rect x="1283.89" y="677.995" width="86.361" height="57.946" style="fill:rgb(235,235,235);"/>
    </g>
    <g transform="matrix(1,0,0,-1,0,2812.5)">
        <rect x="1377.21" y="677.995" width="86.361" height="57.946" style="fill:rgb(235,235,235);"/>
    </g>
    <g transform="matrix(1,0,0,-1,0,2812.5)">
        <rect x="1189.51" y="615.161" width="86.361" height="57.946" style="fill:rgb(235,235,235);"/>
    </g>
    <g transform="matrix(1,0,0,-1,0,2812.5)">
        <rect x="1283.89" y="615.161" width="86.361" height="57.946" style="fill:rgb(235,235,235);"/>
    </g>
    <g transform="matrix(1,0,0,-1,0,2812.5)">
        <rect x="1377.21" y="615.161" width="86.361" height="57.946" style="fill:rgb(235,235,235);"/>
    </g>
    <g transform="matrix(1,0,0,-1,0,2812.5)">
        <rect x="506.015" y="424.448" width="86.361" height="57.946" style="fill:rgb(235,235,235);"/>
    </g>
    <g transform="matrix(1,0,0,-1,0,2812.5)">
        <rect x="600.393" y="424.448" width="86.361" height="57.946" style="fill:rgb(235,235,235);"/>
    </g>
    <g transform="matrix(1,0,0,-1,0,2812.5)">
        <rect x="693.714" y="424.448" width="86.361" height="57.946" style="fill:rgb(235,235,235);"/>
    </g>
    <g transform="matrix(1,0,0,-1,0,2812.5)">
        <rect x="506.015" y="360.596" width="86.361" height="57.946" style="fill:rgb(235,235,235);"/>
    </g>
    <g transform="matrix(1,0,0,-1,0,2812.5)">
        <rect x="600.393" y="360.596" width="86.361" height="57.946" style="fill:rgb(235,235,235);"/>
    </g>
    <g transform="matrix(1,0,0,-1,0,2812.5)">
        <rect x="693.714" y="360.596" width="86.361" height="57.946" style="fill:rgb(235,235,235);"/>
    </g>
    <g transform="matrix(1,0,0,-1,0,2812.5)">
        <rect x="506.015" y="297.052" width="86.361" height="57.946" style="fill:rgb(235,235,235);"/>
    </g>
    <g transform="matrix(1,0,0,-1,0,2812.5)">
        <rect x="600.393" y="297.052" width="86.361" height="57.946" style="fill:rgb(235,235,235);"/>
    </g>
    <g transform="matrix(1,0,0,-1,0,2812.5)">
        <rect x="693.714" y="297.052" width="86.361" height="57.946" style="fill:rgb(235,235,235);"/>
    </g>
    <g transform="matrix(1,0,0,-1,0,2812.5)">
        <rect x="506.015" y="233.2" width="86.361" height="57.946" style="fill:rgb(235,235,235);"/>
    </g>
    <g transform="matrix(1,0,0,-1,0,2812.5)">
        <rect x="600.393" y="233.2" width="86.361" height="57.946" style="fill:rgb(235,235,235);"/>
    </g>
    <g transform="matrix(1,0,0,-1,0,2812.5)">
        <rect x="693.714" y="233.2" width="86.361" height="57.946" style="fill:rgb(235,235,235);"/>
    </g>
    <g transform="matrix(1,0,0,-1,0,2812.5)">
        <rect x="506.015" y="170.366" width="86.361" height="57.946" style="fill:rgb(235,235,235);"/>
    </g>
    <g transform="matrix(1,0,0,-1,0,2812.5)">
        <rect x="600.393" y="170.366" width="86.361" height="57.946" style="fill:rgb(235,235,235);"/>
    </g>
    <g transform="matrix(1,0,0,-1,0,2812.5)">
        <rect x="693.714" y="170.366" width="86.361" height="57.946" style="fill:rgb(235,235,235);"/>
    </g>
    <g transform="matrix(1,0,0,-1,0,2812.5)">
        <rect x="3122.25" y="570.892" width="86.361" height="57.946" style="fill:rgb(235,235,235);"/>
    </g>
    <g transform="matrix(1,0,0,-1,0,2812.5)">
        <rect x="3216.63" y="570.892" width="86.361" height="57.946" style="fill:rgb(235,235,235);"/>
    </g>
    <g transform="matrix(1,0,0,-1,0,2812.5)">
        <rect x="3309.95" y="570.892" width="86.361" height="57.946" style="fill:rgb(235,235,235);"/>
    </g>
    <g transform="matrix(1,0,0,-1,0,2812.5)">
        <rect x="3122.25" y="507.041" width="86.361" height="57.946" style="fill:rgb(235,235,235);"/>
    </g>
    <g transform="matrix(1,0,0,-1,0,2812.5)">
        <rect x="3216.63" y="507.041" width="86.361" height="57.946" style="fill:rgb(235,235,235);"/>
    </g>
    <g transform="matrix(1,0,0,-1,0,2812.5)">
        <rect x="3309.95" y="507.041" width="86.361" height="57.946" style="fill:rgb(235,235,235);"/>
    </g>
    <g transform="matrix(1,0,0,-1,0,2812.5)">
        <rect x="3122.25" y="443.496" width="86.361" height="57.946" style="fill:rgb(235,235,235);"/>
    </g>
    <g transform="matrix(1,0,0,-1,0,2812.5)">
        <rect x="3216.63" y="443.496" width="86.361" height="57.946" style="fill:rgb(235,235,235);"/>
    </g>
    <g transform="matrix(1,0,0,-1,0,2812.5)">
        <rect x="3309.95" y="443.496" width="86.361" height="57.946" style="fill:rgb(235,235,235);"/>
    </g>
    <g transform="matrix(1,0,0,-1,0,2812.5)">
        <rect x="3122.25" y="379.645" width="86.361" height="57.946" style="fill:rgb(235,235,235);"/>
    </g>
    <g transform="matrix(1,0,0,-1,0,2812.5)">
        <rect x="3216.63" y="379.645" width="86.361" height="57.946" style="fill:rgb(235,235,235);"/>
    </g>
    <g transform="matrix(1,0,0,-1,0,2812.5)">
        <rect x="3309.95" y="379.645" width="86.361" height="57.946" style="fill:rgb(235,235,235);"/>
    </g>
    <g transform="matrix(1,0,0,-1,0,2812.5)">
        <rect x="3122.25" y="316.81" width="86.361" height="57.946" style="fill:rgb(235,235,235);"/>
    </g>
    <g transform="matrix(1,0,0,-1,0,2812.5)">
        <rect x="3216.63" y="316.81" width="86.361" height="57.946" style="fill:rgb(235,235,235);"/>
    </g>
    <g transform="matrix(1,0,0,-1,0,2812.5)">
        <rect x="3309.95" y="316.81" width="86.361" height="57.946" style="fill:rgb(235,235,235);"/>
    </g>
    <g transform="matrix(1,0,0,-1,0,2812.5)">
        <rect x="1945.01" y="2521.91" width="86.361" height="57.946" style="fill:rgb(235,235,235);"/>
    </g>
    <g transform="matrix(1,0,0,-1,0,2812.5)">
        <rect x="2039.39" y="2521.91" width="86.361" height="57.946" style="fill:rgb(235,235,235);"/>
    </g>
    <g transform="matrix(1,0,0,-1,0,2812.5)">
        <rect x="2132.71" y="2521.91" width="86.361" height="57.946" style="fill:rgb(235,235,235);"/>
    </g>
    <g transform="matrix(1,0,0,-1,0,2812.5)">
        <rect x="1945.01" y="2458.06" width="86.361" height="57.946" style="fill:rgb(235,235,235);"/>
    </g>
    <g transform="matrix(1,0,0,-1,0,2812.5)">
        <rect x="2039.39" y="2458.06" width="86.361" height="57.946" style="fill:rgb(235,235,235);"/>
    </g>
    <g transform="matrix(1,0,0,-1,0,2812.5)">
        <rect x="2132.71" y="2458.06" width="86.361" height="57.946" style="fill:rgb(235,235,235);"/>
    </g>
    <g transform="matrix(1,0,0,-1,0,2812.5)">
        <rect x="1945.01" y="2394.51" width="86.361" height="57.946" style="fill:rgb(235,235,235);"/>
    </g>
    <g transform="matrix(1,0,0,-1,0,2812.5)">
        <rect x="2039.39" y="2394.51" width="86.361" height="57.946" style="fill:rgb(235,235,235);"/>
    </g>
    <g transform="matrix(1,0,0,-1,0,2812.5)">
        <rect x="2132.71" y="2394.51" width="86.361" height="57.946" style="fill:rgb(235,235,235);"/>
    </g>
    <g transform="matrix(1,0,0,-1,0,2812.5)">
        <rect x="1945.01" y="2330.66" width="86.361" height="57.946" style="fill:rgb(235,235,235);"/>
    </g>
    <g transform="matrix(1,0,0,-1,0,2812.5)">
        <rect x="2039.39" y="2330.66" width="86.361" height="57.946" style="fill:rgb(235,235,235);"/>
    </g>
    <g transform="matrix(1,0,0,-1,0,2812.5)">
        <rect x="2132.71" y="2330.66" width="86.361" height="57.946" style="fill:rgb(235,235,235);"/>
    </g>
    <g transform="matrix(1,0,0,-1,0,2812.5)">
        <rect x="1945.01" y="2267.82" width="86.361" height="57.946" style="fill:rgb(235,235,235);"/>
    </g>
    <g transform="matrix(1,0,0,-1,0,2812.5)">
        <rect x="2039.39" y="2267.82" width="86.361" height="57.946" style="fill:rgb(235,235,235);"/>
    </g>
    <g transform="matrix(1,0,0,-1,0,2812.5)">
        <rect x="2132.71" y="2267.82" width="86.361" height="57.946" style="fill:rgb(235,235,235);"/>
    </g>
    <g transform="matrix(1,0,0,-1,0,2812.5)">
        <rect x="2504.58" y="2057.66" width="86.361" height="57.946" style="fill:rgb(235,235,235);"/>
    </g>
    <g transform="matrix(1,0,0,-1,0,2812.5)">
        <rect x="2598.96" y="2057.66" width="86.361" height="57.946" style="fill:rgb(235,235,235);"/>
    </g>
    <g transform="matrix(1,0,0,-1,0,2812.5)">
        <rect x="2692.28" y="2057.66" width="86.361" height="57.946" style="fill:rgb(235,235,235);"/>
    </g>
    <g transform="matrix(1,0,0,-1,0,2812.5)">
        <rect x="2504.58" y="1993.81" width="86.361" height="57.946" style="fill:rgb(235,235,235);"/>
    </g>
    <g transform="matrix(1,0,0,-1,0,2812.5)">
        <rect x="2598.96" y="1993.81" width="86.361" height="57.946" style="fill:rgb(235,235,235);"/>
    </g>
    <g transform="matrix(1,0,0,-1,0,2812.5)">
        <rect x="2692.28" y="1993.81" width="86.361" height="57.946" style="fill:rgb(235,235,235);"/>
    </g>
    <g transform="matrix(1,0,0,-1,0,2812.5)">
        <rect x="2504.58" y="1930.26" width="86.361" height="57.946" style="fill:rgb(235,235,235);"/>
    </g>
    <g transform="matrix(1,0,0,-1,0,2812.5)">
        <rect x="2598.96" y="1930.26" width="86.361" height="57.946" style="fill:rgb(235,235,235);"/>
    </g>
    <g transform="matrix(1,0,0,-1,0,2812.5)">
        <rect x="2692.28" y="1930.26" width="86.361" height="57.946" style="fill:rgb(235,235,235);"/>
    </g>
    <g transform="matrix(1,0,0,-1,0,2812.5)">
        <rect x="2504.58" y="1866.41" width="86.361" height="57.946" style="fill:rgb(235,235,235);"/>
    </g>
    <g transform="matrix(1,0,0,-1,0,2812.5)">
        <rect x="2598.96" y="1866.41" width="86.361" height="57.946" style="fill:rgb(235,235,235);"/>
    </g>
    <g transform="matrix(1,0,0,-1,0,2812.5)">
        <rect x="2692.28" y="1866.41" width="86.361" height="57.946" style="fill:rgb(235,235,235);"/>
    </g>
    <g transform="matrix(1,0,0,-1,0,2812.5)">
        <rect x="2504.58" y="1803.58" width="86.361" height="57.946" style="fill:rgb(235,235,235);"/>
    </g>
    <g transform="matrix(1,0,0,-1,0,2812.5)">
        <rect x="2598.96" y="1803.58" width="86.361" height="57.946" style="fill:rgb(235,235,235);"/>
    </g>
    <g transform="matrix(1,0,0,-1,0,2812.5)">
        <rect x="2692.28" y="1803.58" width="86.361" height="57.946" style="fill:rgb(235,235,235);"/>
    </g>
</svg>
