<?xml version="1.0" encoding="UTF-8" standalone="no"?>
<!DOCTYPE svg PUBLIC "-//W3C//DTD SVG 1.1//EN" "http://www.w3.org/Graphics/SVG/1.1/DTD/svg11.dtd">
<svg width="100%" height="100%" viewBox="0 0 4050 2813" version="1.1" xmlns="http://www.w3.org/2000/svg" xmlns:xlink="http://www.w3.org/1999/xlink" xml:space="preserve" xmlns:serif="http://www.serif.com/" style="fill-rule:evenodd;clip-rule:evenodd;stroke-linejoin:round;stroke-miterlimit:2;">
    <g transform="matrix(1,0,0,-1,0,2812.5)">
        <path d="M1535.33,1601.15C1556.02,1601.15 1572.81,1584.36 1572.81,1563.68C1572.81,1543 1556.02,1526.21 1535.33,1526.21C1514.65,1526.21 1497.86,1543 1497.86,1563.68C1497.86,1584.36 1514.65,1601.15 1535.33,1601.15Z" style="fill:rgb(235,235,235);"/>
    </g>
    <g transform="matrix(1,0,0,-1,0,2812.5)">
        <path d="M1612.53,1601.15C1633.21,1601.15 1650,1584.36 1650,1563.68C1650,1543 1633.21,1526.21 1612.53,1526.21C1591.85,1526.21 1575.06,1543 1575.06,1563.68C1575.06,1584.36 1591.85,1601.15 1612.53,1601.15Z" style="fill:rgb(235,235,235);"/>
    </g>
    <g transform="matrix(1,0,0,-1,0,2812.5)">
        <path d="M2470.8,1432.09C2491.48,1432.09 2508.27,1415.29 2508.27,1394.61C2508.27,1373.93 2491.48,1357.14 2470.8,1357.14C2450.12,1357.14 2433.33,1373.93 2433.33,1394.61C2433.33,1415.29 2450.12,1432.09 2470.8,1432.09Z" style="fill:rgb(235,235,235);"/>
    </g>
    <g transform="matrix(1,0,0,-1,0,2812.5)">
        <path d="M2547.99,1432.09C2568.68,1432.09 2585.47,1415.29 2585.47,1394.61C2585.47,1373.93 2568.68,1357.14 2547.99,1357.14C2527.31,1357.14 2510.52,1373.93 2510.52,1394.61C2510.52,1415.29 2527.31,1432.09 2547.99,1432.09Z" style="fill:rgb(235,235,235);"/>
    </g>
    <g transform="matrix(1,0,0,-1,0,2812.5)">
        <path d="M3821.63,1994.87C3842.31,1994.87 3859.1,1978.08 3859.1,1957.4C3859.1,1936.72 3842.31,1919.93 3821.63,1919.93C3800.95,1919.93 3784.16,1936.72 3784.16,1957.4C3784.16,1978.08 3800.95,1994.87 3821.63,1994.87Z" style="fill:rgb(235,235,235);"/>
    </g>
    <g transform="matrix(1,0,0,-1,0,2812.5)">
        <path d="M3898.82,1994.87C3919.51,1994.87 3936.3,1978.08 3936.3,1957.4C3936.3,1936.72 3919.51,1919.93 3898.82,1919.93C3878.14,1919.93 3861.35,1936.72 3861.35,1957.4C3861.35,1978.08 3878.14,1994.87 3898.82,1994.87Z" style="fill:rgb(235,235,235);"/>
    </g>
    <g transform="matrix(1,0,0,-1,0,2812.5)">
        <path d="M2266.54,467.427C2287.22,467.427 2304.01,450.636 2304.01,429.954C2304.01,409.272 2287.22,392.481 2266.54,392.481C2245.86,392.481 2229.07,409.272 2229.07,429.954C2229.07,450.636 2245.86,467.427 2266.54,467.427Z" style="fill:rgb(235,235,235);"/>
    </g>
    <g transform="matrix(1,0,0,-1,0,2812.5)">
        <path d="M2343.73,467.427C2364.42,467.427 2381.21,450.636 2381.21,429.954C2381.21,409.272 2364.42,392.481 2343.73,392.481C2323.05,392.481 2306.26,409.272 2306.26,429.954C2306.26,450.636 2323.05,467.427 2343.73,467.427Z" style="fill:rgb(235,235,235);"/>
    </g>
    <g transform="matrix(1,0,0,-1,0,2812.5)">
        <path d="M1796.67,2212.54C1817.35,2212.54 1834.14,2195.75 1834.14,2175.07C1834.14,2154.39 1817.35,2137.6 1796.67,2137.6C1775.98,2137.6 1759.19,2154.39 1759.19,2175.07C1759.19,2195.75 1775.98,2212.54 1796.67,2212.54Z" style="fill:rgb(235,235,235);"/>
    </g>
    <g transform="matrix(1,0,0,-1,0,2812.5)">
        <path d="M1873.86,2212.54C1894.54,2212.54 1911.33,2195.75 1911.33,2175.07C1911.33,2154.39 1894.54,2137.6 1873.86,2137.6C1853.18,2137.6 1836.39,2154.39 1836.39,2175.07C1836.39,2195.75 1853.18,2212.54 1873.86,2212.54Z" style="fill:rgb(235,235,235);"/>
    </g>
    <g transform="matrix(1,0,0,-1,0,2812.5)">
        <path d="M627.148,1399.09C647.829,1399.09 664.621,1382.3 664.621,1361.62C664.621,1340.93 647.829,1324.14 627.148,1324.14C606.466,1324.14 589.675,1340.93 589.675,1361.62C589.675,1382.3 606.466,1399.09 627.148,1399.09Z" style="fill:rgb(235,235,235);"/>
    </g>
    <g transform="matrix(1,0,0,-1,0,2812.5)">
        <path d="M704.343,1399.09C725.025,1399.09 741.816,1382.3 741.816,1361.62C741.816,1340.93 725.025,1324.14 704.343,1324.14C683.662,1324.14 666.871,1340.93 666.871,1361.62C666.871,1382.3 683.662,1399.09 704.343,1399.09Z" style="fill:rgb(235,235,235);"/>
    </g>
    <g transform="matrix(1,0,0,-1,0,2812.5)">
        <path d="M783.783,1399.09C804.465,1399.09 821.256,1382.3 821.256,1361.62C821.256,1340.93 804.465,1324.14 783.783,1324.14C763.101,1324.14 746.31,1340.93 746.31,1361.62C746.31,1382.3 763.101,1399.09 783.783,1399.09Z" style="fill:rgb(235,235,235);"/>
    </g>
    <g transform="matrix(1,0,0,-1,0,2812.5)">
        <path d="M860.979,1399.09C881.66,1399.09 898.452,1382.3 898.452,1361.62C898.452,1340.93 881.66,1324.14 860.979,1324.14C840.297,1324.14 823.506,1340.93 823.506,1361.62C823.506,1382.3 840.297,1399.09 860.979,1399.09Z" style="fill:rgb(235,235,235);"/>
    </g>
    <g transform="matrix(1,0,0,-1,0,2812.5)">
        <path d="M3373.11,1376.43C3393.79,1376.43 3410.58,1359.63 3410.58,1338.95C3410.58,1318.27 3393.79,1301.48 3373.11,1301.48C3352.42,1301.48 3335.63,1318.27 3335.63,1338.95C3335.63,1359.63 3352.42,1376.43 3373.11,1376.43Z" style="fill:rgb(235,235,235);"/>
    </g>
    <g transform="matrix(1,0,0,-1,0,2812.5)">
        <path d="M3450.3,1376.43C3470.98,1376.43 3487.77,1359.63 3487.77,1338.95C3487.77,1318.27 3470.98,1301.48 3450.3,1301.48C3429.62,1301.48 3412.83,1318.27 3412.83,1338.95C3412.83,1359.63 3429.62,1376.43 3450.3,1376.43Z" style="fill:rgb(235,235,235);"/>
    </g>
    <g transform="matrix(1,0,0,-1,0,2812.5)">
        <path d="M3529.74,1376.43C3550.42,1376.43 3567.21,1359.63 3567.21,1338.95C3567.21,1318.27 3550.42,1301.48 3529.74,1301.48C3509.06,1301.48 3492.27,1318.27 3492.27,1338.95C3492.27,1359.63 3509.06,1376.43 3529.74,1376.43Z" style="fill:rgb(235,235,235);"/>
    </g>
    <g transform="matrix(1,0,0,-1,0,2812.5)">
        <path d="M3606.94,1376.43C3627.62,1376.43 3644.41,1359.63 3644.41,1338.95C3644.41,1318.27 3627.62,1301.48 3606.94,1301.48C3586.25,1301.48 3569.46,1318.27 3569.46,1338.95C3569.46,1359.63 3586.25,1376.43 3606.94,1376.43Z" style="fill:rgb(235,235,235);"/>
    </g>
    <g transform="matrix(1,0,0,-1,0,2812.5)">
        <path d="M899.398,2379.41C920.079,2379.41 936.871,2362.62 936.871,2341.94C936.871,2321.26 920.079,2304.47 899.398,2304.47C878.716,2304.47 861.925,2321.26 861.925,2341.94C861.925,2362.62 878.716,2379.41 899.398,2379.41Z" style="fill:rgb(235,235,235);"/>
    </g>
    <g transform="matrix(1,0,0,-1,0,2812.5)">
        <path d="M976.593,2379.41C997.275,2379.41 1014.07,2362.62 1014.07,2341.94C1014.07,2321.26 997.275,2304.47 976.593,2304.47C955.912,2304.47 939.121,2321.26 939.121,2341.94C939.121,2362.62 955.912,2379.41 976.593,2379.41Z" style="fill:rgb(235,235,235);"/>
    </g>
    <g transform="matrix(1,0,0,-1,0,2812.5)">
        <path d="M1056.03,2379.41C1076.71,2379.41 1093.51,2362.62 1093.51,2341.94C1093.51,2321.26 1076.71,2304.47 1056.03,2304.47C1035.35,2304.47 1018.56,2321.26 1018.56,2341.94C1018.56,2362.62 1035.35,2379.41 1056.03,2379.41Z" style="fill:rgb(235,235,235);"/>
    </g>
    <g transform="matrix(1,0,0,-1,0,2812.5)">
        <path d="M1689.7,923.171C1710.38,923.171 1727.18,906.38 1727.18,885.698C1727.18,865.016 1710.38,848.225 1689.7,848.225C1669.02,848.225 1652.23,865.016 1652.23,885.698C1652.23,906.38 1669.02,923.171 1689.7,923.171Z" style="fill:rgb(235,235,235);"/>
    </g>
    <g transform="matrix(1,0,0,-1,0,2812.5)">
        <path d="M1766.9,923.171C1787.58,923.171 1804.37,906.38 1804.37,885.698C1804.37,865.016 1787.58,848.225 1766.9,848.225C1746.22,848.225 1729.43,865.016 1729.43,885.698C1729.43,906.38 1746.22,923.171 1766.9,923.171Z" style="fill:rgb(235,235,235);"/>
    </g>
    <g transform="matrix(1,0,0,-1,0,2812.5)">
        <path d="M1846.34,923.171C1867.02,923.171 1883.81,906.38 1883.81,885.698C1883.81,865.016 1867.02,848.225 1846.34,848.225C1825.66,848.225 1808.86,865.016 1808.86,885.698C1808.86,906.38 1825.66,923.171 1846.34,923.171Z" style="fill:rgb(235,235,235);"/>
    </g>
    <g transform="matrix(1,0,0,-1,0,2812.5)">
        <path d="M1006.2,478.375C1026.89,478.375 1043.68,461.584 1043.68,440.903C1043.68,420.221 1026.89,403.43 1006.2,403.43C985.521,403.43 968.73,420.221 968.73,440.903C968.73,461.584 985.521,478.375 1006.2,478.375Z" style="fill:rgb(235,235,235);"/>
    </g>
    <g transform="matrix(1,0,0,-1,0,2812.5)">
        <path d="M1083.4,478.375C1104.08,478.375 1120.87,461.584 1120.87,440.903C1120.87,420.221 1104.08,403.43 1083.4,403.43C1062.72,403.43 1045.93,420.221 1045.93,440.903C1045.93,461.584 1062.72,478.375 1083.4,478.375Z" style="fill:rgb(235,235,235);"/>
    </g>
    <g transform="matrix(1,0,0,-1,0,2812.5)">
        <path d="M1162.84,478.375C1183.52,478.375 1200.31,461.584 1200.31,440.903C1200.31,420.221 1183.52,403.43 1162.84,403.43C1142.16,403.43 1125.37,420.221 1125.37,440.903C1125.37,461.584 1142.16,478.375 1162.84,478.375Z" style="fill:rgb(235,235,235);"/>
    </g>
    <g transform="matrix(1,0,0,-1,0,2812.5)">
        <path d="M3622.44,624.82C3643.13,624.82 3659.92,608.029 3659.92,587.347C3659.92,566.665 3643.13,549.874 3622.44,549.874C3601.76,549.874 3584.97,566.665 3584.97,587.347C3584.97,608.029 3601.76,624.82 3622.44,624.82Z" style="fill:rgb(235,235,235);"/>
    </g>
    <g transform="matrix(1,0,0,-1,0,2812.5)">
        <path d="M3699.64,624.82C3720.32,624.82 3737.11,608.029 3737.11,587.347C3737.11,566.665 3720.32,549.874 3699.64,549.874C3678.96,549.874 3662.17,566.665 3662.17,587.347C3662.17,608.029 3678.96,624.82 3699.64,624.82Z" style="fill:rgb(235,235,235);"/>
    </g>
    <g transform="matrix(1,0,0,-1,0,2812.5)">
        <path d="M3779.08,624.82C3799.76,624.82 3816.55,608.029 3816.55,587.347C3816.55,566.665 3799.76,549.874 3779.08,549.874C3758.4,549.874 3741.61,566.665 3741.61,587.347C3741.61,608.029 3758.4,624.82 3779.08,624.82Z" style="fill:rgb(235,235,235);"/>
    </g>
    <g transform="matrix(1,0,0,-1,0,2812.5)">
        <path d="M2445.2,2575.83C2465.88,2575.83 2482.67,2559.04 2482.67,2538.36C2482.67,2517.68 2465.88,2500.89 2445.2,2500.89C2424.52,2500.89 2407.73,2517.68 2407.73,2538.36C2407.73,2559.04 2424.52,2575.83 2445.2,2575.83Z" style="fill:rgb(235,235,235);"/>
    </g>
    <g transform="matrix(1,0,0,-1,0,2812.5)">
        <path d="M2522.4,2575.83C2543.08,2575.83 2559.87,2559.04 2559.87,2538.36C2559.87,2517.68 2543.08,2500.89 2522.4,2500.89C2501.71,2500.89 2484.92,2517.68 2484.92,2538.36C2484.92,2559.04 2501.71,2575.83 2522.4,2575.83Z" style="fill:rgb(235,235,235);"/>
    </g>
    <g transform="matrix(1,0,0,-1,0,2812.5)">
        <path d="M2601.83,2575.83C2622.52,2575.83 2639.31,2559.04 2639.31,2538.36C2639.31,2517.68 2622.52,2500.89 2601.83,2500.89C2581.15,2500.89 2564.36,2517.68 2564.36,2538.36C2564.36,2559.04 2581.15,2575.83 2601.83,2575.83Z" style="fill:rgb(235,235,235);"/>
    </g>
    <g transform="matrix(1,0,0,-1,0,2812.5)">
        <path d="M3004.77,2111.59C3025.45,2111.59 3042.25,2094.8 3042.25,2074.12C3042.25,2053.43 3025.45,2036.64 3004.77,2036.64C2984.09,2036.64 2967.3,2053.43 2967.3,2074.12C2967.3,2094.8 2984.09,2111.59 3004.77,2111.59Z" style="fill:rgb(235,235,235);"/>
    </g>
    <g transform="matrix(1,0,0,-1,0,2812.5)">
        <path d="M3081.97,2111.59C3102.65,2111.59 3119.44,2094.8 3119.44,2074.12C3119.44,2053.43 3102.65,2036.64 3081.97,2036.64C3061.29,2036.64 3044.5,2053.43 3044.5,2074.12C3044.5,2094.8 3061.29,2111.59 3081.97,2111.59Z" style="fill:rgb(235,235,235);"/>
    </g>
    <g transform="matrix(1,0,0,-1,0,2812.5)">
        <path d="M3161.41,2111.59C3182.09,2111.59 3198.88,2094.8 3198.88,2074.12C3198.88,2053.43 3182.09,2036.64 3161.41,2036.64C3140.73,2036.64 3123.94,2053.43 3123.94,2074.12C3123.94,2094.8 3140.73,2111.59 3161.41,2111.59Z" style="fill:rgb(235,235,235);"/>
    </g>
</svg>
