<svg xmlns="http://www.w3.org/2000/svg" xmlns:xlink="http://www.w3.org/1999/xlink" xmlns:inkscape="http://www.inkscape.org/namespaces/inkscape" version="1.1" width="4050" height="2812.5" viewBox="0 0 4050 2812.5">
<g transform="matrix(.75,0,0,.75,0,0)">

</g>
<path transform="matrix(1,0,0,-1,0,2812.5)" d="M1535.33 1601.15C1556.02 1601.15 1572.81 1584.36 1572.81 1563.68 1572.81 1543 1556.02 1526.21 1535.33 1526.21 1514.65 1526.21 1497.86 1543 1497.86 1563.68 1497.86 1584.36 1514.65 1601.15 1535.33 1601.15Z" fill="#ebebeb" fill-rule="evenodd"/>
<path transform="matrix(1,0,0,-1,0,2812.5)" d="M1612.53 1601.15C1633.21 1601.15 1650 1584.36 1650 1563.68 1650 1543 1633.21 1526.21 1612.53 1526.21 1591.85 1526.21 1575.06 1543 1575.06 1563.68 1575.06 1584.36 1591.85 1601.15 1612.53 1601.15Z" fill="#ebebeb" fill-rule="evenodd"/>
<path transform="matrix(1,0,0,-1,0,2812.5)" d="M1035.15 1547.23H1121.5106V1605.176H1035.15Z" fill="#ebebeb" fill-rule="evenodd"/>
<path transform="matrix(1,0,0,-1,0,2812.5)" d="M1129.52 1547.23H1215.8806V1605.176H1129.52Z" fill="#ebebeb" fill-rule="evenodd"/>
<path transform="matrix(1,0,0,-1,0,2812.5)" d="M1222.84 1547.23H1309.2006V1605.176H1222.84Z" fill="#ebebeb" fill-rule="evenodd"/>
<path transform="matrix(1,0,0,-1,0,2812.5)" d="M1035.15 1483.37H1121.5106V1541.316H1035.15Z" fill="#ebebeb" fill-rule="evenodd"/>
<path transform="matrix(1,0,0,-1,0,2812.5)" d="M1129.52 1483.37H1215.8806V1541.316H1129.52Z" fill="#ebebeb" fill-rule="evenodd"/>
<path transform="matrix(1,0,0,-1,0,2812.5)" d="M1222.84 1483.37H1309.2006V1541.316H1222.84Z" fill="#ebebeb" fill-rule="evenodd"/>
<path transform="matrix(1,0,0,-1,0,2812.5)" d="M1035.15 1419.83H1121.5106V1477.776H1035.15Z" fill="#ebebeb" fill-rule="evenodd"/>
<path transform="matrix(1,0,0,-1,0,2812.5)" d="M1129.52 1419.83H1215.8806V1477.776H1129.52Z" fill="#ebebeb" fill-rule="evenodd"/>
<path transform="matrix(1,0,0,-1,0,2812.5)" d="M1222.84 1419.83H1309.2006V1477.776H1222.84Z" fill="#ebebeb" fill-rule="evenodd"/>
<path transform="matrix(1,0,0,-1,0,2812.5)" d="M1035.15 1355.98H1121.5106V1413.926H1035.15Z" fill="#ebebeb" fill-rule="evenodd"/>
<path transform="matrix(1,0,0,-1,0,2812.5)" d="M1129.52 1355.98H1215.8806V1413.926H1129.52Z" fill="#ebebeb" fill-rule="evenodd"/>
<path transform="matrix(1,0,0,-1,0,2812.5)" d="M1222.84 1355.98H1309.2006V1413.926H1222.84Z" fill="#ebebeb" fill-rule="evenodd"/>
<path transform="matrix(1,0,0,-1,0,2812.5)" d="M1035.15 1293.14H1121.5106V1351.086H1035.15Z" fill="#ebebeb" fill-rule="evenodd"/>
<path transform="matrix(1,0,0,-1,0,2812.5)" d="M1129.52 1293.14H1215.8806V1351.086H1129.52Z" fill="#ebebeb" fill-rule="evenodd"/>
<path transform="matrix(1,0,0,-1,0,2812.5)" d="M1222.84 1293.14H1309.2006V1351.086H1222.84Z" fill="#ebebeb" fill-rule="evenodd"/>
<path transform="matrix(1,0,0,-1,0,2812.5)" d="M2470.8 1432.09C2491.48 1432.09 2508.27 1415.29 2508.27 1394.61 2508.27 1373.93 2491.48 1357.14 2470.8 1357.14 2450.12 1357.14 2433.33 1373.93 2433.33 1394.61 2433.33 1415.29 2450.12 1432.09 2470.8 1432.09Z" fill="#ebebeb" fill-rule="evenodd"/>
<path transform="matrix(1,0,0,-1,0,2812.5)" d="M2547.99 1432.09C2568.68 1432.09 2585.47 1415.29 2585.47 1394.61 2585.47 1373.93 2568.68 1357.14 2547.99 1357.14 2527.31 1357.14 2510.52 1373.93 2510.52 1394.61 2510.52 1415.29 2527.31 1432.09 2547.99 1432.09Z" fill="#ebebeb" fill-rule="evenodd"/>
<path transform="matrix(1,0,0,-1,0,2812.5)" d="M1970.61 1378.16H2056.9708V1436.1061H1970.61Z" fill="#ebebeb" fill-rule="evenodd"/>
<path transform="matrix(1,0,0,-1,0,2812.5)" d="M2064.99 1378.16H2151.3507V1436.1061H2064.99Z" fill="#ebebeb" fill-rule="evenodd"/>
<path transform="matrix(1,0,0,-1,0,2812.5)" d="M2158.31 1378.16H2244.6707V1436.1061H2158.31Z" fill="#ebebeb" fill-rule="evenodd"/>
<path transform="matrix(1,0,0,-1,0,2812.5)" d="M1970.61 1314.31H2056.9708V1372.2561H1970.61Z" fill="#ebebeb" fill-rule="evenodd"/>
<path transform="matrix(1,0,0,-1,0,2812.5)" d="M2064.99 1314.31H2151.3507V1372.2561H2064.99Z" fill="#ebebeb" fill-rule="evenodd"/>
<path transform="matrix(1,0,0,-1,0,2812.5)" d="M2158.31 1314.31H2244.6707V1372.2561H2158.31Z" fill="#ebebeb" fill-rule="evenodd"/>
<path transform="matrix(1,0,0,-1,0,2812.5)" d="M1970.61 1250.76H2056.9708V1308.706H1970.61Z" fill="#ebebeb" fill-rule="evenodd"/>
<path transform="matrix(1,0,0,-1,0,2812.5)" d="M2064.99 1250.76H2151.3507V1308.706H2064.99Z" fill="#ebebeb" fill-rule="evenodd"/>
<path transform="matrix(1,0,0,-1,0,2812.5)" d="M2158.31 1250.76H2244.6707V1308.706H2158.31Z" fill="#ebebeb" fill-rule="evenodd"/>
<path transform="matrix(1,0,0,-1,0,2812.5)" d="M1970.61 1186.91H2056.9708V1244.8561H1970.61Z" fill="#ebebeb" fill-rule="evenodd"/>
<path transform="matrix(1,0,0,-1,0,2812.5)" d="M2064.99 1186.91H2151.3507V1244.8561H2064.99Z" fill="#ebebeb" fill-rule="evenodd"/>
<path transform="matrix(1,0,0,-1,0,2812.5)" d="M2158.31 1186.91H2244.6707V1244.8561H2158.31Z" fill="#ebebeb" fill-rule="evenodd"/>
<path transform="matrix(1,0,0,-1,0,2812.5)" d="M1970.61 1124.08H2056.9708V1182.026H1970.61Z" fill="#ebebeb" fill-rule="evenodd"/>
<path transform="matrix(1,0,0,-1,0,2812.5)" d="M2064.99 1124.08H2151.3507V1182.026H2064.99Z" fill="#ebebeb" fill-rule="evenodd"/>
<path transform="matrix(1,0,0,-1,0,2812.5)" d="M2158.31 1124.08H2244.6707V1182.026H2158.31Z" fill="#ebebeb" fill-rule="evenodd"/>
<path transform="matrix(1,0,0,-1,0,2812.5)" d="M3821.63 1994.87C3842.31 1994.87 3859.1 1978.08 3859.1 1957.4 3859.1 1936.72 3842.31 1919.93 3821.63 1919.93 3800.95 1919.93 3784.16 1936.72 3784.16 1957.4 3784.16 1978.08 3800.95 1994.87 3821.63 1994.87Z" fill="#ebebeb" fill-rule="evenodd"/>
<path transform="matrix(1,0,0,-1,0,2812.5)" d="M3898.82 1994.87C3919.51 1994.87 3936.3 1978.08 3936.3 1957.4 3936.3 1936.72 3919.51 1919.93 3898.82 1919.93 3878.14 1919.93 3861.35 1936.72 3861.35 1957.4 3861.35 1978.08 3878.14 1994.87 3898.82 1994.87Z" fill="#ebebeb" fill-rule="evenodd"/>
<path transform="matrix(1,0,0,-1,0,2812.5)" d="M3321.44 1940.95H3407.8006V1998.896H3321.44Z" fill="#ebebeb" fill-rule="evenodd"/>
<path transform="matrix(1,0,0,-1,0,2812.5)" d="M3415.82 1940.95H3502.1807V1998.896H3415.82Z" fill="#ebebeb" fill-rule="evenodd"/>
<path transform="matrix(1,0,0,-1,0,2812.5)" d="M3509.14 1940.95H3595.5006V1998.896H3509.14Z" fill="#ebebeb" fill-rule="evenodd"/>
<path transform="matrix(1,0,0,-1,0,2812.5)" d="M3321.44 1877.1H3407.8006V1935.046H3321.44Z" fill="#ebebeb" fill-rule="evenodd"/>
<path transform="matrix(1,0,0,-1,0,2812.5)" d="M3415.82 1877.1H3502.1807V1935.046H3415.82Z" fill="#ebebeb" fill-rule="evenodd"/>
<path transform="matrix(1,0,0,-1,0,2812.5)" d="M3509.14 1877.1H3595.5006V1935.046H3509.14Z" fill="#ebebeb" fill-rule="evenodd"/>
<path transform="matrix(1,0,0,-1,0,2812.5)" d="M3321.44 1813.55H3407.8006V1871.4961H3321.44Z" fill="#ebebeb" fill-rule="evenodd"/>
<path transform="matrix(1,0,0,-1,0,2812.5)" d="M3415.82 1813.55H3502.1807V1871.4961H3415.82Z" fill="#ebebeb" fill-rule="evenodd"/>
<path transform="matrix(1,0,0,-1,0,2812.5)" d="M3509.14 1813.55H3595.5006V1871.4961H3509.14Z" fill="#ebebeb" fill-rule="evenodd"/>
<path transform="matrix(1,0,0,-1,0,2812.5)" d="M3321.44 1749.7H3407.8006V1807.646H3321.44Z" fill="#ebebeb" fill-rule="evenodd"/>
<path transform="matrix(1,0,0,-1,0,2812.5)" d="M3415.82 1749.7H3502.1807V1807.646H3415.82Z" fill="#ebebeb" fill-rule="evenodd"/>
<path transform="matrix(1,0,0,-1,0,2812.5)" d="M3509.14 1749.7H3595.5006V1807.646H3509.14Z" fill="#ebebeb" fill-rule="evenodd"/>
<path transform="matrix(1,0,0,-1,0,2812.5)" d="M3321.44 1686.86H3407.8006V1744.806H3321.44Z" fill="#ebebeb" fill-rule="evenodd"/>
<path transform="matrix(1,0,0,-1,0,2812.5)" d="M3415.82 1686.86H3502.1807V1744.806H3415.82Z" fill="#ebebeb" fill-rule="evenodd"/>
<path transform="matrix(1,0,0,-1,0,2812.5)" d="M3509.14 1686.86H3595.5006V1744.806H3509.14Z" fill="#ebebeb" fill-rule="evenodd"/>
<path transform="matrix(1,0,0,-1,0,2812.5)" d="M2266.54 467.427C2287.22 467.427 2304.01 450.636 2304.01 429.954 2304.01 409.272 2287.22 392.481 2266.54 392.481 2245.86 392.481 2229.07 409.272 2229.07 429.954 2229.07 450.636 2245.86 467.427 2266.54 467.427Z" fill="#ebebeb" fill-rule="evenodd"/>
<path transform="matrix(1,0,0,-1,0,2812.5)" d="M2343.73 467.427C2364.42 467.427 2381.21 450.636 2381.21 429.954 2381.21 409.272 2364.42 392.481 2343.73 392.481 2323.05 392.481 2306.26 409.272 2306.26 429.954 2306.26 450.636 2323.05 467.427 2343.73 467.427Z" fill="#ebebeb" fill-rule="evenodd"/>
<path transform="matrix(1,0,0,-1,0,2812.5)" d="M1766.35 413.499H1852.7106V471.4451H1766.35Z" fill="#ebebeb" fill-rule="evenodd"/>
<path transform="matrix(1,0,0,-1,0,2812.5)" d="M1860.73 413.499H1947.0906V471.4451H1860.73Z" fill="#ebebeb" fill-rule="evenodd"/>
<path transform="matrix(1,0,0,-1,0,2812.5)" d="M1954.05 413.499H2040.4107V471.4451H1954.05Z" fill="#ebebeb" fill-rule="evenodd"/>
<path transform="matrix(1,0,0,-1,0,2812.5)" d="M1766.35 349.647H1852.7106V407.5931H1766.35Z" fill="#ebebeb" fill-rule="evenodd"/>
<path transform="matrix(1,0,0,-1,0,2812.5)" d="M1860.73 349.647H1947.0906V407.5931H1860.73Z" fill="#ebebeb" fill-rule="evenodd"/>
<path transform="matrix(1,0,0,-1,0,2812.5)" d="M1954.05 349.647H2040.4107V407.5931H1954.05Z" fill="#ebebeb" fill-rule="evenodd"/>
<path transform="matrix(1,0,0,-1,0,2812.5)" d="M1766.35 286.103H1852.7106V344.0491H1766.35Z" fill="#ebebeb" fill-rule="evenodd"/>
<path transform="matrix(1,0,0,-1,0,2812.5)" d="M1860.73 286.103H1947.0906V344.0491H1860.73Z" fill="#ebebeb" fill-rule="evenodd"/>
<path transform="matrix(1,0,0,-1,0,2812.5)" d="M1954.05 286.103H2040.4107V344.0491H1954.05Z" fill="#ebebeb" fill-rule="evenodd"/>
<path transform="matrix(1,0,0,-1,0,2812.5)" d="M1766.35 222.252H1852.7106V280.1981H1766.35Z" fill="#ebebeb" fill-rule="evenodd"/>
<path transform="matrix(1,0,0,-1,0,2812.5)" d="M1860.73 222.252H1947.0906V280.1981H1860.73Z" fill="#ebebeb" fill-rule="evenodd"/>
<path transform="matrix(1,0,0,-1,0,2812.5)" d="M1954.05 222.252H2040.4107V280.1981H1954.05Z" fill="#ebebeb" fill-rule="evenodd"/>
<path transform="matrix(1,0,0,-1,0,2812.5)" d="M1766.35 159.417H1852.7106V217.3631H1766.35Z" fill="#ebebeb" fill-rule="evenodd"/>
<path transform="matrix(1,0,0,-1,0,2812.5)" d="M1860.73 159.417H1947.0906V217.3631H1860.73Z" fill="#ebebeb" fill-rule="evenodd"/>
<path transform="matrix(1,0,0,-1,0,2812.5)" d="M1954.05 159.417H2040.4107V217.3631H1954.05Z" fill="#ebebeb" fill-rule="evenodd"/>
<path transform="matrix(1,0,0,-1,0,2812.5)" d="M1796.67 2212.54C1817.35 2212.54 1834.14 2195.75 1834.14 2175.07 1834.14 2154.39 1817.35 2137.6 1796.67 2137.6 1775.98 2137.6 1759.19 2154.39 1759.19 2175.07 1759.19 2195.75 1775.98 2212.54 1796.67 2212.54Z" fill="#ebebeb" fill-rule="evenodd"/>
<path transform="matrix(1,0,0,-1,0,2812.5)" d="M1873.86 2212.54C1894.54 2212.54 1911.33 2195.75 1911.33 2175.07 1911.33 2154.39 1894.54 2137.6 1873.86 2137.6 1853.18 2137.6 1836.39 2154.39 1836.39 2175.07 1836.39 2195.75 1853.18 2212.54 1873.86 2212.54Z" fill="#ebebeb" fill-rule="evenodd"/>
<path transform="matrix(1,0,0,-1,0,2812.5)" d="M1296.48 2158.61H1382.8406V2216.5562H1296.48Z" fill="#ebebeb" fill-rule="evenodd"/>
<path transform="matrix(1,0,0,-1,0,2812.5)" d="M1390.86 2158.61H1477.2206V2216.5562H1390.86Z" fill="#ebebeb" fill-rule="evenodd"/>
<path transform="matrix(1,0,0,-1,0,2812.5)" d="M1484.18 2158.61H1570.5407V2216.5562H1484.18Z" fill="#ebebeb" fill-rule="evenodd"/>
<path transform="matrix(1,0,0,-1,0,2812.5)" d="M1296.48 2094.76H1382.8406V2152.706H1296.48Z" fill="#ebebeb" fill-rule="evenodd"/>
<path transform="matrix(1,0,0,-1,0,2812.5)" d="M1390.86 2094.76H1477.2206V2152.706H1390.86Z" fill="#ebebeb" fill-rule="evenodd"/>
<path transform="matrix(1,0,0,-1,0,2812.5)" d="M1484.18 2094.76H1570.5407V2152.706H1484.18Z" fill="#ebebeb" fill-rule="evenodd"/>
<path transform="matrix(1,0,0,-1,0,2812.5)" d="M1296.48 2031.22H1382.8406V2089.166H1296.48Z" fill="#ebebeb" fill-rule="evenodd"/>
<path transform="matrix(1,0,0,-1,0,2812.5)" d="M1390.86 2031.22H1477.2206V2089.166H1390.86Z" fill="#ebebeb" fill-rule="evenodd"/>
<path transform="matrix(1,0,0,-1,0,2812.5)" d="M1484.18 2031.22H1570.5407V2089.166H1484.18Z" fill="#ebebeb" fill-rule="evenodd"/>
<path transform="matrix(1,0,0,-1,0,2812.5)" d="M1296.48 1967.37H1382.8406V2025.316H1296.48Z" fill="#ebebeb" fill-rule="evenodd"/>
<path transform="matrix(1,0,0,-1,0,2812.5)" d="M1390.86 1967.37H1477.2206V2025.316H1390.86Z" fill="#ebebeb" fill-rule="evenodd"/>
<path transform="matrix(1,0,0,-1,0,2812.5)" d="M1484.18 1967.37H1570.5407V2025.316H1484.18Z" fill="#ebebeb" fill-rule="evenodd"/>
<path transform="matrix(1,0,0,-1,0,2812.5)" d="M1296.48 1904.53H1382.8406V1962.4761H1296.48Z" fill="#ebebeb" fill-rule="evenodd"/>
<path transform="matrix(1,0,0,-1,0,2812.5)" d="M1390.86 1904.53H1477.2206V1962.4761H1390.86Z" fill="#ebebeb" fill-rule="evenodd"/>
<path transform="matrix(1,0,0,-1,0,2812.5)" d="M1484.18 1904.53H1570.5407V1962.4761H1484.18Z" fill="#ebebeb" fill-rule="evenodd"/>
<path transform="matrix(1,0,0,-1,0,2812.5)" d="M126.959 1345.16H213.31961V1403.1061H126.959Z" fill="#ebebeb" fill-rule="evenodd"/>
<path transform="matrix(1,0,0,-1,0,2812.5)" d="M221.337 1345.16H307.6976V1403.1061H221.337Z" fill="#ebebeb" fill-rule="evenodd"/>
<path transform="matrix(1,0,0,-1,0,2812.5)" d="M314.659 1345.16H401.0196V1403.1061H314.659Z" fill="#ebebeb" fill-rule="evenodd"/>
<path transform="matrix(1,0,0,-1,0,2812.5)" d="M126.959 1281.31H213.31961V1339.2561H126.959Z" fill="#ebebeb" fill-rule="evenodd"/>
<path transform="matrix(1,0,0,-1,0,2812.5)" d="M221.337 1281.31H307.6976V1339.2561H221.337Z" fill="#ebebeb" fill-rule="evenodd"/>
<path transform="matrix(1,0,0,-1,0,2812.5)" d="M314.659 1281.31H401.0196V1339.2561H314.659Z" fill="#ebebeb" fill-rule="evenodd"/>
<path transform="matrix(1,0,0,-1,0,2812.5)" d="M126.959 1217.76H213.31961V1275.706H126.959Z" fill="#ebebeb" fill-rule="evenodd"/>
<path transform="matrix(1,0,0,-1,0,2812.5)" d="M221.337 1217.76H307.6976V1275.706H221.337Z" fill="#ebebeb" fill-rule="evenodd"/>
<path transform="matrix(1,0,0,-1,0,2812.5)" d="M314.659 1217.76H401.0196V1275.706H314.659Z" fill="#ebebeb" fill-rule="evenodd"/>
<path transform="matrix(1,0,0,-1,0,2812.5)" d="M126.959 1153.91H213.31961V1211.8561H126.959Z" fill="#ebebeb" fill-rule="evenodd"/>
<path transform="matrix(1,0,0,-1,0,2812.5)" d="M221.337 1153.91H307.6976V1211.8561H221.337Z" fill="#ebebeb" fill-rule="evenodd"/>
<path transform="matrix(1,0,0,-1,0,2812.5)" d="M314.659 1153.91H401.0196V1211.8561H314.659Z" fill="#ebebeb" fill-rule="evenodd"/>
<path transform="matrix(1,0,0,-1,0,2812.5)" d="M126.959 1091.08H213.31961V1149.026H126.959Z" fill="#ebebeb" fill-rule="evenodd"/>
<path transform="matrix(1,0,0,-1,0,2812.5)" d="M221.337 1091.08H307.6976V1149.026H221.337Z" fill="#ebebeb" fill-rule="evenodd"/>
<path transform="matrix(1,0,0,-1,0,2812.5)" d="M314.659 1091.08H401.0196V1149.026H314.659Z" fill="#ebebeb" fill-rule="evenodd"/>
<path transform="matrix(1,0,0,-1,0,2812.5)" d="M627.148 1399.09C647.829 1399.09 664.621 1382.3 664.621 1361.62 664.621 1340.93 647.829 1324.14 627.148 1324.14 606.466 1324.14 589.675 1340.93 589.675 1361.62 589.675 1382.3 606.466 1399.09 627.148 1399.09Z" fill="#ebebeb" fill-rule="evenodd"/>
<path transform="matrix(1,0,0,-1,0,2812.5)" d="M704.343 1399.09C725.025 1399.09 741.816 1382.3 741.816 1361.62 741.816 1340.93 725.025 1324.14 704.343 1324.14 683.662 1324.14 666.871 1340.93 666.871 1361.62 666.871 1382.3 683.662 1399.09 704.343 1399.09Z" fill="#ebebeb" fill-rule="evenodd"/>
<path transform="matrix(1,0,0,-1,0,2812.5)" d="M783.783 1399.09C804.465 1399.09 821.256 1382.3 821.256 1361.62 821.256 1340.93 804.465 1324.14 783.783 1324.14 763.101 1324.14 746.31 1340.93 746.31 1361.62 746.31 1382.3 763.101 1399.09 783.783 1399.09Z" fill="#ebebeb" fill-rule="evenodd"/>
<path transform="matrix(1,0,0,-1,0,2812.5)" d="M860.979 1399.09C881.66 1399.09 898.452 1382.3 898.452 1361.62 898.452 1340.93 881.66 1324.14 860.979 1324.14 840.297 1324.14 823.506 1340.93 823.506 1361.62 823.506 1382.3 840.297 1399.09 860.979 1399.09Z" fill="#ebebeb" fill-rule="evenodd"/>
<path transform="matrix(1,0,0,-1,0,2812.5)" d="M2872.92 1322.5H2959.2806V1380.446H2872.92Z" fill="#ebebeb" fill-rule="evenodd"/>
<path transform="matrix(1,0,0,-1,0,2812.5)" d="M2967.3 1322.5H3053.6607V1380.446H2967.3Z" fill="#ebebeb" fill-rule="evenodd"/>
<path transform="matrix(1,0,0,-1,0,2812.5)" d="M3060.62 1322.5H3146.9808V1380.446H3060.62Z" fill="#ebebeb" fill-rule="evenodd"/>
<path transform="matrix(1,0,0,-1,0,2812.5)" d="M2872.92 1258.65H2959.2806V1316.5961H2872.92Z" fill="#ebebeb" fill-rule="evenodd"/>
<path transform="matrix(1,0,0,-1,0,2812.5)" d="M2967.3 1258.65H3053.6607V1316.5961H2967.3Z" fill="#ebebeb" fill-rule="evenodd"/>
<path transform="matrix(1,0,0,-1,0,2812.5)" d="M3060.62 1258.65H3146.9808V1316.5961H3060.62Z" fill="#ebebeb" fill-rule="evenodd"/>
<path transform="matrix(1,0,0,-1,0,2812.5)" d="M2872.92 1195.1H2959.2806V1253.046H2872.92Z" fill="#ebebeb" fill-rule="evenodd"/>
<path transform="matrix(1,0,0,-1,0,2812.5)" d="M2967.3 1195.1H3053.6607V1253.046H2967.3Z" fill="#ebebeb" fill-rule="evenodd"/>
<path transform="matrix(1,0,0,-1,0,2812.5)" d="M3060.62 1195.1H3146.9808V1253.046H3060.62Z" fill="#ebebeb" fill-rule="evenodd"/>
<path transform="matrix(1,0,0,-1,0,2812.5)" d="M2872.92 1131.25H2959.2806V1189.196H2872.92Z" fill="#ebebeb" fill-rule="evenodd"/>
<path transform="matrix(1,0,0,-1,0,2812.5)" d="M2967.3 1131.25H3053.6607V1189.196H2967.3Z" fill="#ebebeb" fill-rule="evenodd"/>
<path transform="matrix(1,0,0,-1,0,2812.5)" d="M3060.62 1131.25H3146.9808V1189.196H3060.62Z" fill="#ebebeb" fill-rule="evenodd"/>
<path transform="matrix(1,0,0,-1,0,2812.5)" d="M2872.92 1068.42H2959.2806V1126.3661H2872.92Z" fill="#ebebeb" fill-rule="evenodd"/>
<path transform="matrix(1,0,0,-1,0,2812.5)" d="M2967.3 1068.42H3053.6607V1126.3661H2967.3Z" fill="#ebebeb" fill-rule="evenodd"/>
<path transform="matrix(1,0,0,-1,0,2812.5)" d="M3060.62 1068.42H3146.9808V1126.3661H3060.62Z" fill="#ebebeb" fill-rule="evenodd"/>
<path transform="matrix(1,0,0,-1,0,2812.5)" d="M3373.11 1376.43C3393.79 1376.43 3410.58 1359.63 3410.58 1338.95 3410.58 1318.27 3393.79 1301.48 3373.11 1301.48 3352.42 1301.48 3335.63 1318.27 3335.63 1338.95 3335.63 1359.63 3352.42 1376.43 3373.11 1376.43Z" fill="#ebebeb" fill-rule="evenodd"/>
<path transform="matrix(1,0,0,-1,0,2812.5)" d="M3450.3 1376.43C3470.98 1376.43 3487.77 1359.63 3487.77 1338.95 3487.77 1318.27 3470.98 1301.48 3450.3 1301.48 3429.62 1301.48 3412.83 1318.27 3412.83 1338.95 3412.83 1359.63 3429.62 1376.43 3450.3 1376.43Z" fill="#ebebeb" fill-rule="evenodd"/>
<path transform="matrix(1,0,0,-1,0,2812.5)" d="M3529.74 1376.43C3550.42 1376.43 3567.21 1359.63 3567.21 1338.95 3567.21 1318.27 3550.42 1301.48 3529.74 1301.48 3509.06 1301.48 3492.27 1318.27 3492.27 1338.95 3492.27 1359.63 3509.06 1376.43 3529.74 1376.43Z" fill="#ebebeb" fill-rule="evenodd"/>
<path transform="matrix(1,0,0,-1,0,2812.5)" d="M3606.94 1376.43C3627.62 1376.43 3644.41 1359.63 3644.41 1338.95 3644.41 1318.27 3627.62 1301.48 3606.94 1301.48 3586.25 1301.48 3569.46 1318.27 3569.46 1338.95 3569.46 1359.63 3586.25 1376.43 3606.94 1376.43Z" fill="#ebebeb" fill-rule="evenodd"/>
<path transform="matrix(1,0,0,-1,0,2812.5)" d="M399.209 2325.48H485.5696V2383.426H399.209Z" fill="#ebebeb" fill-rule="evenodd"/>
<path transform="matrix(1,0,0,-1,0,2812.5)" d="M493.587 2325.48H579.94766V2383.426H493.587Z" fill="#ebebeb" fill-rule="evenodd"/>
<path transform="matrix(1,0,0,-1,0,2812.5)" d="M586.909 2325.48H673.2696V2383.426H586.909Z" fill="#ebebeb" fill-rule="evenodd"/>
<path transform="matrix(1,0,0,-1,0,2812.5)" d="M399.209 2261.63H485.5696V2319.576H399.209Z" fill="#ebebeb" fill-rule="evenodd"/>
<path transform="matrix(1,0,0,-1,0,2812.5)" d="M493.587 2261.63H579.94766V2319.576H493.587Z" fill="#ebebeb" fill-rule="evenodd"/>
<path transform="matrix(1,0,0,-1,0,2812.5)" d="M586.909 2261.63H673.2696V2319.576H586.909Z" fill="#ebebeb" fill-rule="evenodd"/>
<path transform="matrix(1,0,0,-1,0,2812.5)" d="M399.209 2198.09H485.5696V2256.0362H399.209Z" fill="#ebebeb" fill-rule="evenodd"/>
<path transform="matrix(1,0,0,-1,0,2812.5)" d="M493.587 2198.09H579.94766V2256.0362H493.587Z" fill="#ebebeb" fill-rule="evenodd"/>
<path transform="matrix(1,0,0,-1,0,2812.5)" d="M586.909 2198.09H673.2696V2256.0362H586.909Z" fill="#ebebeb" fill-rule="evenodd"/>
<path transform="matrix(1,0,0,-1,0,2812.5)" d="M399.209 2134.24H485.5696V2192.186H399.209Z" fill="#ebebeb" fill-rule="evenodd"/>
<path transform="matrix(1,0,0,-1,0,2812.5)" d="M493.587 2134.24H579.94766V2192.186H493.587Z" fill="#ebebeb" fill-rule="evenodd"/>
<path transform="matrix(1,0,0,-1,0,2812.5)" d="M586.909 2134.24H673.2696V2192.186H586.909Z" fill="#ebebeb" fill-rule="evenodd"/>
<path transform="matrix(1,0,0,-1,0,2812.5)" d="M399.209 2071.4H485.5696V2129.346H399.209Z" fill="#ebebeb" fill-rule="evenodd"/>
<path transform="matrix(1,0,0,-1,0,2812.5)" d="M493.587 2071.4H579.94766V2129.346H493.587Z" fill="#ebebeb" fill-rule="evenodd"/>
<path transform="matrix(1,0,0,-1,0,2812.5)" d="M586.909 2071.4H673.2696V2129.346H586.909Z" fill="#ebebeb" fill-rule="evenodd"/>
<path transform="matrix(1,0,0,-1,0,2812.5)" d="M899.398 2379.41C920.079 2379.41 936.871 2362.62 936.871 2341.94 936.871 2321.26 920.079 2304.47 899.398 2304.47 878.716 2304.47 861.925 2321.26 861.925 2341.94 861.925 2362.62 878.716 2379.41 899.398 2379.41Z" fill="#ebebeb" fill-rule="evenodd"/>
<path transform="matrix(1,0,0,-1,0,2812.5)" d="M976.593 2379.41C997.275 2379.41 1014.07 2362.62 1014.07 2341.94 1014.07 2321.26 997.275 2304.47 976.593 2304.47 955.912 2304.47 939.121 2321.26 939.121 2341.94 939.121 2362.62 955.912 2379.41 976.593 2379.41Z" fill="#ebebeb" fill-rule="evenodd"/>
<path transform="matrix(1,0,0,-1,0,2812.5)" d="M1056.03 2379.41C1076.71 2379.41 1093.51 2362.62 1093.51 2341.94 1093.51 2321.26 1076.71 2304.47 1056.03 2304.47 1035.35 2304.47 1018.56 2321.26 1018.56 2341.94 1018.56 2362.62 1035.35 2379.41 1056.03 2379.41Z" fill="#ebebeb" fill-rule="evenodd"/>
<path transform="matrix(1,0,0,-1,0,2812.5)" d="M1189.51 869.243H1275.8706V927.1891H1189.51Z" fill="#ebebeb" fill-rule="evenodd"/>
<path transform="matrix(1,0,0,-1,0,2812.5)" d="M1283.89 869.243H1370.2506V927.1891H1283.89Z" fill="#ebebeb" fill-rule="evenodd"/>
<path transform="matrix(1,0,0,-1,0,2812.5)" d="M1377.21 869.243H1463.5706V927.1891H1377.21Z" fill="#ebebeb" fill-rule="evenodd"/>
<path transform="matrix(1,0,0,-1,0,2812.5)" d="M1189.51 805.391H1275.8706V863.3371H1189.51Z" fill="#ebebeb" fill-rule="evenodd"/>
<path transform="matrix(1,0,0,-1,0,2812.5)" d="M1283.89 805.391H1370.2506V863.3371H1283.89Z" fill="#ebebeb" fill-rule="evenodd"/>
<path transform="matrix(1,0,0,-1,0,2812.5)" d="M1377.21 805.391H1463.5706V863.3371H1377.21Z" fill="#ebebeb" fill-rule="evenodd"/>
<path transform="matrix(1,0,0,-1,0,2812.5)" d="M1189.51 741.847H1275.8706V799.7931H1189.51Z" fill="#ebebeb" fill-rule="evenodd"/>
<path transform="matrix(1,0,0,-1,0,2812.5)" d="M1283.89 741.847H1370.2506V799.7931H1283.89Z" fill="#ebebeb" fill-rule="evenodd"/>
<path transform="matrix(1,0,0,-1,0,2812.5)" d="M1377.21 741.847H1463.5706V799.7931H1377.21Z" fill="#ebebeb" fill-rule="evenodd"/>
<path transform="matrix(1,0,0,-1,0,2812.5)" d="M1189.51 677.995H1275.8706V735.9411H1189.51Z" fill="#ebebeb" fill-rule="evenodd"/>
<path transform="matrix(1,0,0,-1,0,2812.5)" d="M1283.89 677.995H1370.2506V735.9411H1283.89Z" fill="#ebebeb" fill-rule="evenodd"/>
<path transform="matrix(1,0,0,-1,0,2812.5)" d="M1377.21 677.995H1463.5706V735.9411H1377.21Z" fill="#ebebeb" fill-rule="evenodd"/>
<path transform="matrix(1,0,0,-1,0,2812.5)" d="M1189.51 615.161H1275.8706V673.1071H1189.51Z" fill="#ebebeb" fill-rule="evenodd"/>
<path transform="matrix(1,0,0,-1,0,2812.5)" d="M1283.89 615.161H1370.2506V673.1071H1283.89Z" fill="#ebebeb" fill-rule="evenodd"/>
<path transform="matrix(1,0,0,-1,0,2812.5)" d="M1377.21 615.161H1463.5706V673.1071H1377.21Z" fill="#ebebeb" fill-rule="evenodd"/>
<path transform="matrix(1,0,0,-1,0,2812.5)" d="M1689.7 923.171C1710.38 923.171 1727.18 906.38 1727.18 885.698 1727.18 865.016 1710.38 848.225 1689.7 848.225 1669.02 848.225 1652.23 865.016 1652.23 885.698 1652.23 906.38 1669.02 923.171 1689.7 923.171Z" fill="#ebebeb" fill-rule="evenodd"/>
<path transform="matrix(1,0,0,-1,0,2812.5)" d="M1766.9 923.171C1787.58 923.171 1804.37 906.38 1804.37 885.698 1804.37 865.016 1787.58 848.225 1766.9 848.225 1746.22 848.225 1729.43 865.016 1729.43 885.698 1729.43 906.38 1746.22 923.171 1766.9 923.171Z" fill="#ebebeb" fill-rule="evenodd"/>
<path transform="matrix(1,0,0,-1,0,2812.5)" d="M1846.34 923.171C1867.02 923.171 1883.81 906.38 1883.81 885.698 1883.81 865.016 1867.02 848.225 1846.34 848.225 1825.66 848.225 1808.86 865.016 1808.86 885.698 1808.86 906.38 1825.66 923.171 1846.34 923.171Z" fill="#ebebeb" fill-rule="evenodd"/>
<path transform="matrix(1,0,0,-1,0,2812.5)" d="M506.015 424.448H592.3756V482.3941H506.015Z" fill="#ebebeb" fill-rule="evenodd"/>
<path transform="matrix(1,0,0,-1,0,2812.5)" d="M600.393 424.448H686.7536V482.3941H600.393Z" fill="#ebebeb" fill-rule="evenodd"/>
<path transform="matrix(1,0,0,-1,0,2812.5)" d="M693.714 424.448H780.0746V482.3941H693.714Z" fill="#ebebeb" fill-rule="evenodd"/>
<path transform="matrix(1,0,0,-1,0,2812.5)" d="M506.015 360.596H592.3756V418.5421H506.015Z" fill="#ebebeb" fill-rule="evenodd"/>
<path transform="matrix(1,0,0,-1,0,2812.5)" d="M600.393 360.596H686.7536V418.5421H600.393Z" fill="#ebebeb" fill-rule="evenodd"/>
<path transform="matrix(1,0,0,-1,0,2812.5)" d="M693.714 360.596H780.0746V418.5421H693.714Z" fill="#ebebeb" fill-rule="evenodd"/>
<path transform="matrix(1,0,0,-1,0,2812.5)" d="M506.015 297.052H592.3756V354.9981H506.015Z" fill="#ebebeb" fill-rule="evenodd"/>
<path transform="matrix(1,0,0,-1,0,2812.5)" d="M600.393 297.052H686.7536V354.9981H600.393Z" fill="#ebebeb" fill-rule="evenodd"/>
<path transform="matrix(1,0,0,-1,0,2812.5)" d="M693.714 297.052H780.0746V354.9981H693.714Z" fill="#ebebeb" fill-rule="evenodd"/>
<path transform="matrix(1,0,0,-1,0,2812.5)" d="M506.015 233.2H592.3756V291.1461H506.015Z" fill="#ebebeb" fill-rule="evenodd"/>
<path transform="matrix(1,0,0,-1,0,2812.5)" d="M600.393 233.2H686.7536V291.1461H600.393Z" fill="#ebebeb" fill-rule="evenodd"/>
<path transform="matrix(1,0,0,-1,0,2812.5)" d="M693.714 233.2H780.0746V291.1461H693.714Z" fill="#ebebeb" fill-rule="evenodd"/>
<path transform="matrix(1,0,0,-1,0,2812.5)" d="M506.015 170.366H592.3756V228.3121H506.015Z" fill="#ebebeb" fill-rule="evenodd"/>
<path transform="matrix(1,0,0,-1,0,2812.5)" d="M600.393 170.366H686.7536V228.3121H600.393Z" fill="#ebebeb" fill-rule="evenodd"/>
<path transform="matrix(1,0,0,-1,0,2812.5)" d="M693.714 170.366H780.0746V228.3121H693.714Z" fill="#ebebeb" fill-rule="evenodd"/>
<path transform="matrix(1,0,0,-1,0,2812.5)" d="M1006.2 478.375C1026.89 478.375 1043.68 461.584 1043.68 440.903 1043.68 420.221 1026.89 403.43 1006.2 403.43 985.521 403.43 968.73 420.221 968.73 440.903 968.73 461.584 985.521 478.375 1006.2 478.375Z" fill="#ebebeb" fill-rule="evenodd"/>
<path transform="matrix(1,0,0,-1,0,2812.5)" d="M1083.4 478.375C1104.08 478.375 1120.87 461.584 1120.87 440.903 1120.87 420.221 1104.08 403.43 1083.4 403.43 1062.72 403.43 1045.93 420.221 1045.93 440.903 1045.93 461.584 1062.72 478.375 1083.4 478.375Z" fill="#ebebeb" fill-rule="evenodd"/>
<path transform="matrix(1,0,0,-1,0,2812.5)" d="M1162.84 478.375C1183.52 478.375 1200.31 461.584 1200.31 440.903 1200.31 420.221 1183.52 403.43 1162.84 403.43 1142.16 403.43 1125.37 420.221 1125.37 440.903 1125.37 461.584 1142.16 478.375 1162.84 478.375Z" fill="#ebebeb" fill-rule="evenodd"/>
<path transform="matrix(1,0,0,-1,0,2812.5)" d="M3122.25 570.892H3208.6107V628.83816H3122.25Z" fill="#ebebeb" fill-rule="evenodd"/>
<path transform="matrix(1,0,0,-1,0,2812.5)" d="M3216.63 570.892H3302.9906V628.83816H3216.63Z" fill="#ebebeb" fill-rule="evenodd"/>
<path transform="matrix(1,0,0,-1,0,2812.5)" d="M3309.95 570.892H3396.3106V628.83816H3309.95Z" fill="#ebebeb" fill-rule="evenodd"/>
<path transform="matrix(1,0,0,-1,0,2812.5)" d="M3122.25 507.041H3208.6107V564.98709H3122.25Z" fill="#ebebeb" fill-rule="evenodd"/>
<path transform="matrix(1,0,0,-1,0,2812.5)" d="M3216.63 507.041H3302.9906V564.98709H3216.63Z" fill="#ebebeb" fill-rule="evenodd"/>
<path transform="matrix(1,0,0,-1,0,2812.5)" d="M3309.95 507.041H3396.3106V564.98709H3309.95Z" fill="#ebebeb" fill-rule="evenodd"/>
<path transform="matrix(1,0,0,-1,0,2812.5)" d="M3122.25 443.496H3208.6107V501.4421H3122.25Z" fill="#ebebeb" fill-rule="evenodd"/>
<path transform="matrix(1,0,0,-1,0,2812.5)" d="M3216.63 443.496H3302.9906V501.4421H3216.63Z" fill="#ebebeb" fill-rule="evenodd"/>
<path transform="matrix(1,0,0,-1,0,2812.5)" d="M3309.95 443.496H3396.3106V501.4421H3309.95Z" fill="#ebebeb" fill-rule="evenodd"/>
<path transform="matrix(1,0,0,-1,0,2812.5)" d="M3122.25 379.645H3208.6107V437.5911H3122.25Z" fill="#ebebeb" fill-rule="evenodd"/>
<path transform="matrix(1,0,0,-1,0,2812.5)" d="M3216.63 379.645H3302.9906V437.5911H3216.63Z" fill="#ebebeb" fill-rule="evenodd"/>
<path transform="matrix(1,0,0,-1,0,2812.5)" d="M3309.95 379.645H3396.3106V437.5911H3309.95Z" fill="#ebebeb" fill-rule="evenodd"/>
<path transform="matrix(1,0,0,-1,0,2812.5)" d="M3122.25 316.81H3208.6107V374.7561H3122.25Z" fill="#ebebeb" fill-rule="evenodd"/>
<path transform="matrix(1,0,0,-1,0,2812.5)" d="M3216.63 316.81H3302.9906V374.7561H3216.63Z" fill="#ebebeb" fill-rule="evenodd"/>
<path transform="matrix(1,0,0,-1,0,2812.5)" d="M3309.95 316.81H3396.3106V374.7561H3309.95Z" fill="#ebebeb" fill-rule="evenodd"/>
<path transform="matrix(1,0,0,-1,0,2812.5)" d="M3622.44 624.82C3643.13 624.82 3659.92 608.029 3659.92 587.347 3659.92 566.665 3643.13 549.874 3622.44 549.874 3601.76 549.874 3584.97 566.665 3584.97 587.347 3584.97 608.029 3601.76 624.82 3622.44 624.82Z" fill="#ebebeb" fill-rule="evenodd"/>
<path transform="matrix(1,0,0,-1,0,2812.5)" d="M3699.64 624.82C3720.32 624.82 3737.11 608.029 3737.11 587.347 3737.11 566.665 3720.32 549.874 3699.64 549.874 3678.96 549.874 3662.17 566.665 3662.17 587.347 3662.17 608.029 3678.96 624.82 3699.64 624.82Z" fill="#ebebeb" fill-rule="evenodd"/>
<path transform="matrix(1,0,0,-1,0,2812.5)" d="M3779.08 624.82C3799.76 624.82 3816.55 608.029 3816.55 587.347 3816.55 566.665 3799.76 549.874 3779.08 549.874 3758.4 549.874 3741.61 566.665 3741.61 587.347 3741.61 608.029 3758.4 624.82 3779.08 624.82Z" fill="#ebebeb" fill-rule="evenodd"/>
<path transform="matrix(1,0,0,-1,0,2812.5)" d="M1945.01 2521.91H2031.3706V2579.856H1945.01Z" fill="#ebebeb" fill-rule="evenodd"/>
<path transform="matrix(1,0,0,-1,0,2812.5)" d="M2039.39 2521.91H2125.7508V2579.856H2039.39Z" fill="#ebebeb" fill-rule="evenodd"/>
<path transform="matrix(1,0,0,-1,0,2812.5)" d="M2132.71 2521.91H2219.0706V2579.856H2132.71Z" fill="#ebebeb" fill-rule="evenodd"/>
<path transform="matrix(1,0,0,-1,0,2812.5)" d="M1945.01 2458.06H2031.3706V2516.006H1945.01Z" fill="#ebebeb" fill-rule="evenodd"/>
<path transform="matrix(1,0,0,-1,0,2812.5)" d="M2039.39 2458.06H2125.7508V2516.006H2039.39Z" fill="#ebebeb" fill-rule="evenodd"/>
<path transform="matrix(1,0,0,-1,0,2812.5)" d="M2132.71 2458.06H2219.0706V2516.006H2132.71Z" fill="#ebebeb" fill-rule="evenodd"/>
<path transform="matrix(1,0,0,-1,0,2812.5)" d="M1945.01 2394.51H2031.3706V2452.456H1945.01Z" fill="#ebebeb" fill-rule="evenodd"/>
<path transform="matrix(1,0,0,-1,0,2812.5)" d="M2039.39 2394.51H2125.7508V2452.456H2039.39Z" fill="#ebebeb" fill-rule="evenodd"/>
<path transform="matrix(1,0,0,-1,0,2812.5)" d="M2132.71 2394.51H2219.0706V2452.456H2132.71Z" fill="#ebebeb" fill-rule="evenodd"/>
<path transform="matrix(1,0,0,-1,0,2812.5)" d="M1945.01 2330.66H2031.3706V2388.606H1945.01Z" fill="#ebebeb" fill-rule="evenodd"/>
<path transform="matrix(1,0,0,-1,0,2812.5)" d="M2039.39 2330.66H2125.7508V2388.606H2039.39Z" fill="#ebebeb" fill-rule="evenodd"/>
<path transform="matrix(1,0,0,-1,0,2812.5)" d="M2132.71 2330.66H2219.0706V2388.606H2132.71Z" fill="#ebebeb" fill-rule="evenodd"/>
<path transform="matrix(1,0,0,-1,0,2812.5)" d="M1945.01 2267.82H2031.3706V2325.766H1945.01Z" fill="#ebebeb" fill-rule="evenodd"/>
<path transform="matrix(1,0,0,-1,0,2812.5)" d="M2039.39 2267.82H2125.7508V2325.766H2039.39Z" fill="#ebebeb" fill-rule="evenodd"/>
<path transform="matrix(1,0,0,-1,0,2812.5)" d="M2132.71 2267.82H2219.0706V2325.766H2132.71Z" fill="#ebebeb" fill-rule="evenodd"/>
<path transform="matrix(1,0,0,-1,0,2812.5)" d="M2445.2 2575.83C2465.88 2575.83 2482.67 2559.04 2482.67 2538.36 2482.67 2517.68 2465.88 2500.89 2445.2 2500.89 2424.52 2500.89 2407.73 2517.68 2407.73 2538.36 2407.73 2559.04 2424.52 2575.83 2445.2 2575.83Z" fill="#ebebeb" fill-rule="evenodd"/>
<path transform="matrix(1,0,0,-1,0,2812.5)" d="M2522.4 2575.83C2543.08 2575.83 2559.87 2559.04 2559.87 2538.36 2559.87 2517.68 2543.08 2500.89 2522.4 2500.89 2501.71 2500.89 2484.92 2517.68 2484.92 2538.36 2484.92 2559.04 2501.71 2575.83 2522.4 2575.83Z" fill="#ebebeb" fill-rule="evenodd"/>
<path transform="matrix(1,0,0,-1,0,2812.5)" d="M2601.83 2575.83C2622.52 2575.83 2639.31 2559.04 2639.31 2538.36 2639.31 2517.68 2622.52 2500.89 2601.83 2500.89 2581.15 2500.89 2564.36 2517.68 2564.36 2538.36 2564.36 2559.04 2581.15 2575.83 2601.83 2575.83Z" fill="#ebebeb" fill-rule="evenodd"/>
<path transform="matrix(1,0,0,-1,0,2812.5)" d="M2504.58 2057.66H2590.9407V2115.606H2504.58Z" fill="#ebebeb" fill-rule="evenodd"/>
<path transform="matrix(1,0,0,-1,0,2812.5)" d="M2598.96 2057.66H2685.3206V2115.606H2598.96Z" fill="#ebebeb" fill-rule="evenodd"/>
<path transform="matrix(1,0,0,-1,0,2812.5)" d="M2692.28 2057.66H2778.6407V2115.606H2692.28Z" fill="#ebebeb" fill-rule="evenodd"/>
<path transform="matrix(1,0,0,-1,0,2812.5)" d="M2504.58 1993.81H2590.9407V2051.756H2504.58Z" fill="#ebebeb" fill-rule="evenodd"/>
<path transform="matrix(1,0,0,-1,0,2812.5)" d="M2598.96 1993.81H2685.3206V2051.756H2598.96Z" fill="#ebebeb" fill-rule="evenodd"/>
<path transform="matrix(1,0,0,-1,0,2812.5)" d="M2692.28 1993.81H2778.6407V2051.756H2692.28Z" fill="#ebebeb" fill-rule="evenodd"/>
<path transform="matrix(1,0,0,-1,0,2812.5)" d="M2504.58 1930.26H2590.9407V1988.206H2504.58Z" fill="#ebebeb" fill-rule="evenodd"/>
<path transform="matrix(1,0,0,-1,0,2812.5)" d="M2598.96 1930.26H2685.3206V1988.206H2598.96Z" fill="#ebebeb" fill-rule="evenodd"/>
<path transform="matrix(1,0,0,-1,0,2812.5)" d="M2692.28 1930.26H2778.6407V1988.206H2692.28Z" fill="#ebebeb" fill-rule="evenodd"/>
<path transform="matrix(1,0,0,-1,0,2812.5)" d="M2504.58 1866.41H2590.9407V1924.3561H2504.58Z" fill="#ebebeb" fill-rule="evenodd"/>
<path transform="matrix(1,0,0,-1,0,2812.5)" d="M2598.96 1866.41H2685.3206V1924.3561H2598.96Z" fill="#ebebeb" fill-rule="evenodd"/>
<path transform="matrix(1,0,0,-1,0,2812.5)" d="M2692.28 1866.41H2778.6407V1924.3561H2692.28Z" fill="#ebebeb" fill-rule="evenodd"/>
<path transform="matrix(1,0,0,-1,0,2812.5)" d="M2504.58 1803.58H2590.9407V1861.526H2504.58Z" fill="#ebebeb" fill-rule="evenodd"/>
<path transform="matrix(1,0,0,-1,0,2812.5)" d="M2598.96 1803.58H2685.3206V1861.526H2598.96Z" fill="#ebebeb" fill-rule="evenodd"/>
<path transform="matrix(1,0,0,-1,0,2812.5)" d="M2692.28 1803.58H2778.6407V1861.526H2692.28Z" fill="#ebebeb" fill-rule="evenodd"/>
<path transform="matrix(1,0,0,-1,0,2812.5)" d="M3004.77 2111.59C3025.45 2111.59 3042.25 2094.8 3042.25 2074.12 3042.25 2053.43 3025.45 2036.64 3004.77 2036.64 2984.09 2036.64 2967.3 2053.43 2967.3 2074.12 2967.3 2094.8 2984.09 2111.59 3004.77 2111.59Z" fill="#ebebeb" fill-rule="evenodd"/>
<path transform="matrix(1,0,0,-1,0,2812.5)" d="M3081.97 2111.59C3102.65 2111.59 3119.44 2094.8 3119.44 2074.12 3119.44 2053.43 3102.65 2036.64 3081.97 2036.64 3061.29 2036.64 3044.5 2053.43 3044.5 2074.12 3044.5 2094.8 3061.29 2111.59 3081.97 2111.59Z" fill="#ebebeb" fill-rule="evenodd"/>
<path transform="matrix(1,0,0,-1,0,2812.5)" d="M3161.41 2111.59C3182.09 2111.59 3198.88 2094.8 3198.88 2074.12 3198.88 2053.43 3182.09 2036.64 3161.41 2036.64 3140.73 2036.64 3123.94 2053.43 3123.94 2074.12 3123.94 2094.8 3140.73 2111.59 3161.41 2111.59Z" fill="#ebebeb" fill-rule="evenodd"/>
</svg>
