<?xml version="1.0" encoding="UTF-8" standalone="no"?>
<!DOCTYPE svg PUBLIC "-//W3C//DTD SVG 1.1//EN" "http://www.w3.org/Graphics/SVG/1.1/DTD/svg11.dtd">
<svg width="100%" height="100%" viewBox="0 0 1681 198" version="1.1" xmlns="http://www.w3.org/2000/svg" xmlns:xlink="http://www.w3.org/1999/xlink" xml:space="preserve" xmlns:serif="http://www.serif.com/" style="fill-rule:evenodd;clip-rule:evenodd;stroke-linejoin:round;stroke-miterlimit:2;">
    <g transform="matrix(1,0,0,1,-295.276,-196.705)">
        <g id="Name" transform="matrix(1,0,0,1,233.149,142.372)">
            <rect x="62.127" y="54.333" width="1680.56" height="197.142" style="fill:none;"/>
            <g transform="matrix(1,0,-0.37125,1.02,114.654,55.5032)">
                <text x="0px" y="141.488px" style="font-family:'Orbitron-Regular', 'Orbitron';font-size:116.667px;fill:rgb(125,255,0);stroke:rgb(125,255,0);stroke-width:14.75px;">W<tspan x="149.1px 185.617px 288.05px 390.483px 427px 536.083px 655.9px 699.183px 742.467px 849.917px 950.017px 1059.1px 1167.72px 1276.57px 1379px 1479.92px " y="141.488px 141.488px 141.488px 141.488px 141.488px 141.488px 141.488px 141.488px 141.488px 141.488px 141.488px 141.488px 141.488px 141.488px 141.488px 141.488px ">ILLIAM  STANDLEY</tspan></text>
            </g>
            <g transform="matrix(1,0,-0.37125,1.02,120.569,51.5032)">
                <text x="0px" y="141.488px" style="font-family:'Orbitron-Regular', 'Orbitron';font-size:116.667px;fill:rgb(255,113,206);stroke:rgb(255,113,206);stroke-width:14.75px;">W<tspan x="149.1px 185.617px 288.05px 390.483px 427px 536.083px 655.9px 699.183px 742.467px 849.917px 950.017px 1059.1px 1167.72px 1276.57px 1379px 1479.92px " y="141.488px 141.488px 141.488px 141.488px 141.488px 141.488px 141.488px 141.488px 141.488px 141.488px 141.488px 141.488px 141.488px 141.488px 141.488px 141.488px ">ILLIAM  STANDLEY</tspan></text>
            </g>
            <g transform="matrix(1,0,-0.37125,1.02,114.654,51.5032)">
                <text x="0px" y="141.488px" style="font-family:'Orbitron-Regular', 'Orbitron';font-size:116.667px;fill:rgb(5,217,232);stroke:rgb(5,217,232);stroke-width:14.75px;">W<tspan x="149.1px 185.617px 288.05px 390.483px 427px 536.083px 655.9px 699.183px 742.467px 849.917px 950.017px 1059.1px 1167.72px 1276.57px 1379px 1479.92px " y="141.488px 141.488px 141.488px 141.488px 141.488px 141.488px 141.488px 141.488px 141.488px 141.488px 141.488px 141.488px 141.488px 141.488px 141.488px 141.488px ">ILLIAM  STANDLEY</tspan></text>
            </g>
        </g>
    </g>
</svg>
