<?xml version="1.0" encoding="UTF-8" standalone="no"?>
<!DOCTYPE svg PUBLIC "-//W3C//DTD SVG 1.1//EN" "http://www.w3.org/Graphics/SVG/1.1/DTD/svg11.dtd">
<svg width="100%" height="100%" viewBox="0 0 141 138" version="1.1" xmlns="http://www.w3.org/2000/svg" xmlns:xlink="http://www.w3.org/1999/xlink" xml:space="preserve" xmlns:serif="http://www.serif.com/" style="fill-rule:evenodd;clip-rule:evenodd;stroke-linejoin:round;stroke-miterlimit:2;">
    <g transform="matrix(1,0,0,1,-1177.5,-733.424)">
        <g transform="matrix(0.78903,0,0,0.78903,260.136,409.653)">
            <g transform="matrix(0.310783,0,0,0.310783,-295.593,129.692)">
                <g id="Globe-Earth" serif:id="Globe Earth" transform="matrix(21.9504,1.62343e-30,-2.70571e-31,21.9504,-3089.25,-1227.12)">
                    <path d="M355.884,109.222C356.04,106.969 356.863,104.853 358.275,103.077C359.187,103.471 360.159,103.806 361.173,104.069C360.707,105.692 360.441,107.424 360.382,109.222L355.884,109.222ZM366.222,116.566L366.222,121.026C364.943,120.597 363.754,119.125 362.902,116.911C363.939,116.719 365.053,116.604 366.222,116.566ZM363.45,120.564C361.871,120.032 360.43,119.15 359.227,117.976C359.954,117.688 360.745,117.434 361.587,117.221C362.088,118.56 362.724,119.697 363.45,120.564ZM361.724,110.778L366.222,110.778L366.222,115.21C364.936,115.252 363.678,115.393 362.474,115.63C362.042,114.128 361.785,112.461 361.724,110.778ZM366.222,104.79L366.222,109.222L361.724,109.222C361.785,107.538 362.042,105.872 362.474,104.371C363.684,104.608 364.942,104.749 366.222,104.79ZM359.227,102.024C360.431,100.85 361.872,99.968 363.45,99.437C362.724,100.302 362.09,101.44 361.587,102.78C360.746,102.566 359.954,102.312 359.227,102.024ZM362.902,103.089C363.754,100.873 364.944,99.402 366.222,98.976L366.222,103.435C365.052,103.396 363.938,103.28 362.902,103.089ZM361.173,115.931C360.161,116.195 359.188,116.529 358.275,116.924C356.863,115.149 356.04,113.032 355.884,110.778L360.382,110.778C360.441,112.575 360.707,114.306 361.173,115.931ZM378.116,110.773C377.959,113.031 377.137,115.149 375.725,116.924C374.811,116.529 373.838,116.195 372.827,115.932C373.292,114.309 373.558,112.577 373.618,110.773L378.116,110.773ZM367.778,103.435L367.778,98.976C369.057,99.402 370.246,100.874 371.098,103.089C370.062,103.28 368.948,103.396 367.778,103.435ZM372.413,102.78C371.911,101.44 371.276,100.302 370.549,99.437C372.127,99.968 373.569,100.85 374.772,102.024C374.045,102.312 373.254,102.566 372.413,102.78ZM372.275,109.222L367.778,109.222L367.778,104.79C369.061,104.748 370.32,104.607 371.525,104.371C371.958,105.87 372.215,107.537 372.275,109.222ZM373.617,109.222C373.558,107.425 373.292,105.694 372.826,104.07C373.839,103.806 374.811,103.472 375.725,103.077C377.137,104.852 377.959,106.968 378.115,109.222L373.617,109.222ZM367.778,115.21L367.778,110.773L372.275,110.773C372.215,112.462 371.958,114.13 371.525,115.629C370.32,115.392 369.061,115.251 367.778,115.21ZM374.773,117.976C373.57,119.15 372.128,120.032 370.549,120.564C371.276,119.697 371.911,118.56 372.413,117.221C373.256,117.435 374.047,117.688 374.773,117.976ZM371.097,116.911C370.246,119.125 369.057,120.596 367.778,121.026L367.778,116.566C368.943,116.604 370.056,116.719 371.097,116.911ZM366.999,97.5C360.108,97.5 354.5,103.108 354.5,110C354.5,116.892 360.108,122.5 366.999,122.5C373.892,122.5 379.5,116.892 379.5,110C379.5,103.108 373.892,97.5 366.999,97.5Z" style="fill:rgb(125,255,0);"/>
                </g>
                <g id="Globe-Earth1" serif:id="Globe Earth" transform="matrix(21.9504,1.62343e-30,-2.70571e-31,21.9504,-3066.25,-1237.12)">
                    <path d="M355.884,109.222C356.04,106.969 356.863,104.853 358.275,103.077C359.187,103.471 360.159,103.806 361.173,104.069C360.707,105.692 360.441,107.424 360.382,109.222L355.884,109.222ZM366.222,116.566L366.222,121.026C364.943,120.597 363.754,119.125 362.902,116.911C363.939,116.719 365.053,116.604 366.222,116.566ZM363.45,120.564C361.871,120.032 360.43,119.15 359.227,117.976C359.954,117.688 360.745,117.434 361.587,117.221C362.088,118.56 362.724,119.697 363.45,120.564ZM361.724,110.778L366.222,110.778L366.222,115.21C364.936,115.252 363.678,115.393 362.474,115.63C362.042,114.128 361.785,112.461 361.724,110.778ZM366.222,104.79L366.222,109.222L361.724,109.222C361.785,107.538 362.042,105.872 362.474,104.371C363.684,104.608 364.942,104.749 366.222,104.79ZM359.227,102.024C360.431,100.85 361.872,99.968 363.45,99.437C362.724,100.302 362.09,101.44 361.587,102.78C360.746,102.566 359.954,102.312 359.227,102.024ZM362.902,103.089C363.754,100.873 364.944,99.402 366.222,98.976L366.222,103.435C365.052,103.396 363.938,103.28 362.902,103.089ZM361.173,115.931C360.161,116.195 359.188,116.529 358.275,116.924C356.863,115.149 356.04,113.032 355.884,110.778L360.382,110.778C360.441,112.575 360.707,114.306 361.173,115.931ZM378.116,110.773C377.959,113.031 377.137,115.149 375.725,116.924C374.811,116.529 373.838,116.195 372.827,115.932C373.292,114.309 373.558,112.577 373.618,110.773L378.116,110.773ZM367.778,103.435L367.778,98.976C369.057,99.402 370.246,100.874 371.098,103.089C370.062,103.28 368.948,103.396 367.778,103.435ZM372.413,102.78C371.911,101.44 371.276,100.302 370.549,99.437C372.127,99.968 373.569,100.85 374.772,102.024C374.045,102.312 373.254,102.566 372.413,102.78ZM372.275,109.222L367.778,109.222L367.778,104.79C369.061,104.748 370.32,104.607 371.525,104.371C371.958,105.87 372.215,107.537 372.275,109.222ZM373.617,109.222C373.558,107.425 373.292,105.694 372.826,104.07C373.839,103.806 374.811,103.472 375.725,103.077C377.137,104.852 377.959,106.968 378.115,109.222L373.617,109.222ZM367.778,115.21L367.778,110.773L372.275,110.773C372.215,112.462 371.958,114.13 371.525,115.629C370.32,115.392 369.061,115.251 367.778,115.21ZM374.773,117.976C373.57,119.15 372.128,120.032 370.549,120.564C371.276,119.697 371.911,118.56 372.413,117.221C373.256,117.435 374.047,117.688 374.773,117.976ZM371.097,116.911C370.246,119.125 369.057,120.596 367.778,121.026L367.778,116.566C368.943,116.604 370.056,116.719 371.097,116.911ZM366.999,97.5C360.108,97.5 354.5,103.108 354.5,110C354.5,116.892 360.108,122.5 366.999,122.5C373.892,122.5 379.5,116.892 379.5,110C379.5,103.108 373.892,97.5 366.999,97.5Z" style="fill:rgb(255,113,206);"/>
                </g>
                <g id="Globe-Earth2" serif:id="Globe Earth" transform="matrix(21.9504,1.62343e-30,-2.70571e-31,21.9504,-3089.25,-1237.12)">
                    <path d="M355.884,109.222C356.04,106.969 356.863,104.853 358.275,103.077C359.187,103.471 360.159,103.806 361.173,104.069C360.707,105.692 360.441,107.424 360.382,109.222L355.884,109.222ZM366.222,116.566L366.222,121.026C364.943,120.597 363.754,119.125 362.902,116.911C363.939,116.719 365.053,116.604 366.222,116.566ZM363.45,120.564C361.871,120.032 360.43,119.15 359.227,117.976C359.954,117.688 360.745,117.434 361.587,117.221C362.088,118.56 362.724,119.697 363.45,120.564ZM361.724,110.778L366.222,110.778L366.222,115.21C364.936,115.252 363.678,115.393 362.474,115.63C362.042,114.128 361.785,112.461 361.724,110.778ZM366.222,104.79L366.222,109.222L361.724,109.222C361.785,107.538 362.042,105.872 362.474,104.371C363.684,104.608 364.942,104.749 366.222,104.79ZM359.227,102.024C360.431,100.85 361.872,99.968 363.45,99.437C362.724,100.302 362.09,101.44 361.587,102.78C360.746,102.566 359.954,102.312 359.227,102.024ZM362.902,103.089C363.754,100.873 364.944,99.402 366.222,98.976L366.222,103.435C365.052,103.396 363.938,103.28 362.902,103.089ZM361.173,115.931C360.161,116.195 359.188,116.529 358.275,116.924C356.863,115.149 356.04,113.032 355.884,110.778L360.382,110.778C360.441,112.575 360.707,114.306 361.173,115.931ZM378.116,110.773C377.959,113.031 377.137,115.149 375.725,116.924C374.811,116.529 373.838,116.195 372.827,115.932C373.292,114.309 373.558,112.577 373.618,110.773L378.116,110.773ZM367.778,103.435L367.778,98.976C369.057,99.402 370.246,100.874 371.098,103.089C370.062,103.28 368.948,103.396 367.778,103.435ZM372.413,102.78C371.911,101.44 371.276,100.302 370.549,99.437C372.127,99.968 373.569,100.85 374.772,102.024C374.045,102.312 373.254,102.566 372.413,102.78ZM372.275,109.222L367.778,109.222L367.778,104.79C369.061,104.748 370.32,104.607 371.525,104.371C371.958,105.87 372.215,107.537 372.275,109.222ZM373.617,109.222C373.558,107.425 373.292,105.694 372.826,104.07C373.839,103.806 374.811,103.472 375.725,103.077C377.137,104.852 377.959,106.968 378.115,109.222L373.617,109.222ZM367.778,115.21L367.778,110.773L372.275,110.773C372.215,112.462 371.958,114.13 371.525,115.629C370.32,115.392 369.061,115.251 367.778,115.21ZM374.773,117.976C373.57,119.15 372.128,120.032 370.549,120.564C371.276,119.697 371.911,118.56 372.413,117.221C373.256,117.435 374.047,117.688 374.773,117.976ZM371.097,116.911C370.246,119.125 369.057,120.596 367.778,121.026L367.778,116.566C368.943,116.604 370.056,116.719 371.097,116.911ZM366.999,97.5C360.108,97.5 354.5,103.108 354.5,110C354.5,116.892 360.108,122.5 366.999,122.5C373.892,122.5 379.5,116.892 379.5,110C379.5,103.108 373.892,97.5 366.999,97.5Z" style="fill:rgb(5,217,232);"/>
                </g>
            </g>
        </g>
    </g>
</svg>
